<svg version="1.2" xmlns="http://www.w3.org/2000/svg" viewBox="0 0 5000 3000" width="5000" height="3000"><style>.a{fill:#fff}.b{fill:#231f20}</style><path class="a" d="m988.5 260.4c0 0 362.3 71.7 686.8-15.3 103.4 65.5 156.6 85 288.7 135.1 132.1 50.2 226.2 138.2 286.6 305.1 60.4 166.8 145.4 335.7 208.9 417.6-68.6 98.3-232.4 187.3-380.9 194.5-104.4-148.4-113.6-169.9-113.6-169.9 0 0-11.2 498.5 13.3 1010.3 24.6 511.9 22.6 554.9 22.6 554.9 0 0-32.8 81.9-616.3 85.9-515.9-8.1-603.9-34.7-698.1-94.1 16.4-348.1 61.4-1242.8 43-1537.6-16.4 32.8-114.7 155.6-114.7 155.6 0 0-249.7-16.3-386.9-194.5 73.7-106.4 178.1-321.4 219-444.2 41-122.9 155.6-245.7 333.8-309.2 149.4-53.2 207.8-94.2 207.8-94.2z"/><path class="b" d="m988.5 260.4l-0.6 3.1c0.1 0 140.5 27.8 325 27.8 112 0 240.3-10.2 363.2-43.2l-0.8-3-1.6 2.6c51.7 32.8 91.1 54.2 133.9 73.6 42.9 19.3 89.3 36.8 155.3 61.8 65.7 25 121.8 59.3 169 108 47.3 48.8 85.7 112.1 115.8 195.2 30.2 83.6 66.6 167.6 103.4 241.1 36.8 73.4 74 136.2 105.9 177.4l2.5-1.9-2.6-1.8c-33.9 48.6-91.6 95.2-159.3 130.5-67.8 35.2-145.5 59.2-219.1 62.7l0.1 3.1 2.6-1.8c-52.2-74.2-80.6-116.6-95.9-140.5-7.7-11.9-12-19.2-14.5-23.5-1.2-2.1-2-3.5-2.4-4.3q-0.3-0.7-0.4-0.9l-0.1-0.1-5.7-13.2-0.3 14.3c0 0-2.6 114.1-2.6 289.1 0 190.9 3.1 454.4 15.9 721.5 21.1 438.7 22.6 532.9 22.6 550.8 0 1.5 0 2.4 0 3q0 0.4-0.1 0.6v0.1l0.9 0.1-0.9-0.1 0.9 0.1-0.9-0.1 3.2 0.2-2.9-1.2 1.6 0.7-1.6-0.8v0.1l1.6 0.7-1.6-0.8v0.1c-0.3 0.5-3.3 5.8-16.6 13.6-20 11.6-63.3 28.5-154.5 42.8-91.2 14.4-230.4 26.2-442.3 27.6v3.1l0.1-3.1c-257.9-4.1-408.9-12.8-506.8-27.8-49-7.6-84.8-16.7-114.1-27.5-29.3-10.9-52.2-23.6-75.7-38.4l-1.6 2.7 3.1 0.1c13.7-290.6 47.3-962.5 47.3-1348 0-76.2-1.3-141.1-4.3-189.8l-0.7-11.6-5.2 10.4c-2 3.8-5.2 9.3-9.5 15.7-7.4 11.3-17.6 25.7-28.8 40.8-16.9 22.8-35.9 47.5-50.7 66.4-7.3 9.4-13.7 17.4-18.2 23.1-2.2 2.9-4 5.1-5.2 6.6-1.3 1.6-1.9 2.4-1.9 2.4l2.4 1.9 0.2-3.1q0 0-0.1 0c-3.7-0.2-66.4-5-144.9-31.5-39.2-13.3-82.4-32-124.1-58.2-41.8-26.3-82.1-60.1-115.5-103.6l-2.5 1.9 2.5 1.8c37-53.4 81.6-133.9 122.1-216.4 40.5-82.5 76.9-167 97.4-228.6 40.6-121.8 154.5-244.1 331.8-307.2 149.7-53.3 208.3-94.4 208.6-94.6l-1.8-2.6-0.6 3.1 0.6-3.1-1.8-2.5h-0.1c-1.5 1.1-60.1 41.5-207 93.8-178.9 63.7-294.3 187.2-335.6 311.1-20.4 61.2-56.7 145.6-97.1 227.9-40.4 82.3-84.9 162.6-121.6 215.6l-1.3 1.8 1.4 1.8c34.6 44.9 76.2 79.6 119.2 106.3 64.4 40.1 131.9 62.5 183.2 74.8 51.4 12.3 86.7 14.6 86.8 14.6l1.6 0.2 1.1-1.3c0 0 24.5-30.7 51.2-65.6 13.3-17.4 27.1-35.8 38.7-52 5.8-8.1 11-15.6 15.2-22.2 4.3-6.5 7.7-12.1 9.9-16.4l-2.8-1.4-3.1 0.2c3 48.5 4.3 113.4 4.3 189.5 0 385.2-33.7 1057.1-47.3 1347.7l-0.1 1.8 1.5 1c23.7 14.9 47.1 27.8 76.9 38.9 44.7 16.6 103.7 29 199.8 38 96.2 9 229.6 14.7 423.1 17.8 291.9-2.1 446.2-23.6 527.7-44.7 40.8-10.5 63.4-21 76-28.9 6.3-4 10.1-7.4 12.3-9.9 2.3-2.5 3-4.1 3.1-4.5l0.2-0.5 0.1-0.5c0-0.1 0-1 0-4 0-18.1-1.5-112.4-22.6-551.1-12.8-267-15.8-530.3-15.8-721.2 0-87.5 0.6-159.7 1.3-210.1 0.3-25.2 0.6-44.9 0.8-58.3q0.3-10.1 0.3-15.3c0.1-3.5 0.1-5.2 0.1-5.2l-3.1-0.1-2.8 1.2c0 0.2 0.7 1.6 3.2 6 7.6 13.2 32.4 53.2 110.7 164.5l1 1.4 1.7-0.1c74.8-3.6 153.2-27.8 221.6-63.4 68.5-35.6 126.9-82.7 161.6-132.4l1.3-1.9-1.4-1.8c-31.5-40.6-68.6-103.2-105.2-176.4-36.7-73.2-73-157.1-103.1-240.4-30.4-83.7-69.2-147.9-117.2-197.4-47.9-49.5-104.9-84.3-171.3-109.5-66-25.1-112.3-42.5-154.9-61.7-42.6-19.3-81.6-40.4-133.2-73.1l-1.1-0.8-1.4 0.4c-122.2 32.8-249.9 43-361.6 43-91.9 0-172.9-7-230.9-13.9-29-3.4-52.3-6.9-68.2-9.5-8-1.3-14.2-2.4-18.4-3.1q-3.1-0.6-4.7-0.9-0.8-0.2-1.2-0.2-0.4-0.1-0.4-0.1l-1.3-0.3-1.1 0.8z"/><path class="b" d="m1999.9 2643l0.5 0.2-0.5-0.2 0.5 0.2-0.5-0.2q0 0-0.3 0.4c-0.4 0.8-1.7 2.8-5 5.7l1.4 1.6c4.7-4.1 5.8-6.7 5.9-6.9zm-8.5 8.7c-2 1.4-4.3 3-7.1 4.7l1.1 1.9c2.9-1.8 5.3-3.4 7.2-4.9zm-10.7 6.9q-3.3 1.9-7.5 3.9l0.9 2q4.3-2.1 7.7-4zm-11.4 5.7q-3.7 1.7-7.9 3.4l0.8 2q4.3-1.7 7.9-3.4zm-11.8 5q-3.8 1.5-8 3l0.7 2q4.3-1.5 8.1-3zm-12.1 4.4q-3.9 1.4-8.1 2.7l0.6 2.1q4.3-1.4 8.2-2.7zm-12.2 3.9q-4 1.3-8.3 2.5l0.6 2q4.3-1.2 8.3-2.4zm-12.4 3.6q-4 1.1-8.3 2.2l0.6 2.1q4.3-1.1 8.3-2.2zm-12.5 3.3q-4 1-8.3 2l0.5 2.1q4.3-1 8.4-2zm-12.6 3q-4.1 1-8.4 1.9l0.5 2.1q4.3-0.9 8.4-1.9zm-12.6 2.8q-4.1 0.9-8.4 1.8l0.4 2.1q4.3-0.9 8.4-1.8zm-12.6 2.6q-4.1 0.9-8.5 1.7l0.4 2.1q4.4-0.8 8.5-1.6zm-12.7 2.4q-4.1 0.8-8.4 1.5l0.3 2.1q4.4-0.7 8.5-1.5zm-12.7 2.3q-4.2 0.7-8.5 1.4l0.4 2.1q4.3-0.7 8.5-1.4zm-12.8 2.1q-4.2 0.7-8.5 1.4l0.3 2.1q4.4-0.7 8.6-1.3zm-12.8 2q-4.2 0.6-8.5 1.2l0.3 2.2q4.3-0.7 8.5-1.3zm-12.8 1.9q-4.2 0.6-8.5 1.1l0.3 2.2q4.3-0.6 8.5-1.2zm-12.8 1.8q-4.2 0.5-8.5 1.1l0.3 2.1q4.3-0.5 8.5-1.1zm-12.8 1.7q-4.2 0.5-8.6 1l0.3 2.2q4.3-0.6 8.6-1.1zm-12.8 1.5q-4.3 0.5-8.6 1l0.2 2.1q4.4-0.4 8.6-0.9zm-12.8 1.4q-4.3 0.5-8.6 1l0.2 2.1q4.4-0.5 8.6-0.9zm-12.8 1.3q-4.3 0.5-8.6 0.9l0.2 2.2q4.3-0.5 8.6-0.9zm-12.9 1.3q-4.2 0.4-8.6 0.8l0.2 2.2q4.4-0.4 8.6-0.9zm-12.8 1.3q-4.3 0.4-8.6 0.8l0.2 2.1q4.3-0.4 8.6-0.8zm-12.9 1.2q-4.3 0.4-8.6 0.7l0.2 2.2q4.3-0.4 8.6-0.8zm-12.9 1.1q-4.3 0.4-8.6 0.7l0.1 2.2q4.4-0.4 8.6-0.7zm-12.8 1q-4.3 0.3-8.6 0.6l0.1 2.2q4.4-0.3 8.6-0.7zm-12.9 1q-4.2 0.3-8.6 0.6l0.2 2.2q4.3-0.3 8.6-0.6zm-12.9 0.9q-4.3 0.3-8.6 0.5l0.1 2.2q4.4-0.3 8.6-0.6zm-12.9 0.9q-4.2 0.2-8.6 0.5l0.2 2.2q4.3-0.3 8.6-0.6zm-12.9 0.8q-4.3 0.3-8.7 0.5l0.2 2.2q4.3-0.3 8.6-0.5zm-12.9 0.7q-4.3 0.2-8.6 0.5l0.1 2.1q4.3-0.2 8.6-0.4zm-12.9 0.7q-4.3 0.2-8.6 0.4l0.1 2.2q4.3-0.3 8.6-0.5zm-12.9 0.7q-4.3 0.2-8.7 0.4l0.1 2.1q4.4-0.2 8.7-0.4zm-13 0.6q-4.2 0.2-8.6 0.4l0.1 2.2q4.4-0.2 8.6-0.4zm-12.9 0.6q-4.3 0.1-8.6 0.3l0.1 2.2q4.3-0.2 8.6-0.4zm-12.9 0.6q-4.3 0.1-8.6 0.3l0.1 2.1q4.3-0.1 8.6-0.3zm-12.9 0.5q-4.3 0.1-8.7 0.3l0.1 2.1q4.3-0.1 8.6-0.3zm-12.9 0.5q-4.3 0.1-8.6 0.3l0.1 2.1q4.3-0.1 8.6-0.3zm-12.9 0.5q-4.3 0.1-8.7 0.2l0.1 2.2q4.3-0.2 8.6-0.3zm-12.9 0.4q-4.3 0.1-8.6 0.2v2.2q4.4-0.2 8.6-0.3zm-12.9 0.4q-4.3 0.1-8.6 0.2v2.1q4.4-0.1 8.7-0.2zm-13 0.3q-4.3 0.1-8.6 0.2l0.1 2.2q4.3-0.1 8.6-0.2zm-13 0.3q-4.2 0.1-8.6 0.1l0.1 2.2q4.3-0.1 8.6-0.2zm-12.9 0.3q-4.3 0-8.7 0.1l0.1 2.2q4.3-0.1 8.6-0.2zm-12.9 0.2q-4.3 0.1-8.7 0.1l0.1 2.2q4.3-0.1 8.6-0.1zm-12.9 0.1q-4.3 0.1-8.7 0.1l0.1 2.2q4.3 0 8.6-0.1zm-13 0.1q-4.3 0.1-8.6 0.1v2.2q4.4 0 8.7-0.1zm-13 0.1q-4.3 0.1-8.6 0.1v2.2q4.3-0.1 8.6-0.1zm-12.9 0q-4.3-0.1-8.6-0.1v2.1q4.3 0.1 8.6 0.2zm-13-0.3q-4.3 0-8.6-0.1v2.1q4.3 0.1 8.6 0.2zm-12.9-0.2q-4.4-0.1-8.6-0.2l-0.1 2.2q4.3 0.1 8.6 0.1zm-12.9-0.2q-4.3-0.1-8.6-0.2l-0.1 2.2q4.3 0.1 8.7 0.2zm-13-0.3q-4.3-0.1-8.6-0.2v2.2q4.3 0.1 8.6 0.2zm-12.9-0.3q-4.4-0.1-8.7-0.2v2.2q4.3 0.1 8.6 0.2zm-12.9-0.3q-4.4-0.1-8.7-0.2v2.2q4.3 0 8.6 0.1zm-12.9-0.2q-4.4-0.1-8.6-0.2l-0.1 2.1q4.3 0.1 8.6 0.2zm-12.9-0.3q-4.3-0.1-8.6-0.2l-0.1 2.2q4.3 0.1 8.6 0.2zm-12.9-0.3q-4.3-0.2-8.6-0.3l-0.1 2.2q4.3 0.1 8.7 0.2zm-13-0.3q-4.3-0.1-8.6-0.3l-0.1 2.2q4.3 0.1 8.7 0.2zm-13-0.3q-4.3-0.1-8.6-0.3v2.2q4.2 0.1 8.6 0.2zm-13-0.3q-4.3-0.2-8.6-0.3v2.2q4.2 0.1 8.6 0.2zm-12.9-0.4q-4.4-0.1-8.7-0.2v2.1q4.2 0.1 8.6 0.3zm-13-0.4q-4.3-0.2-8.6-0.3v2.1q4.2 0.2 8.6 0.3zm-12.9-0.4q-4.4-0.2-8.7-0.3v2.1q4.2 0.2 8.6 0.3zm-13-0.4q-4.3-0.2-8.6-0.3l-0.1 2.1q4.3 0.2 8.7 0.3zm-13-0.4q-4.3-0.2-8.6-0.4l-0.1 2.2q4.3 0.1 8.7 0.3zm-13-0.5q-4.3-0.2-8.6-0.4l-0.1 2.2q4.3 0.2 8.7 0.4zm-13-0.6q-4.3-0.2-8.6-0.3l-0.1 2.1q4.3 0.2 8.6 0.4zm-12.9-0.6q-4.3-0.2-8.6-0.4l-0.1 2.2q4.3 0.2 8.6 0.4zm-12.9-0.6q-4.4-0.2-8.6-0.4l-0.1 2.1q4.2 0.2 8.6 0.4zm-12.9-0.6q-4.4-0.2-8.7-0.4l-0.1 2.1q4.3 0.3 8.6 0.5zm-12.9-0.7q-4.3-0.2-8.6-0.5l-0.1 2.2q4.3 0.2 8.6 0.5zm-12.9-0.7q-4.3-0.3-8.6-0.5l-0.1 2.1q4.2 0.3 8.6 0.5zm-12.9-0.7q-4.4-0.3-8.6-0.5l-0.2 2.1q4.3 0.3 8.6 0.5zm-12.9-0.7q-4.3-0.3-8.6-0.6l-0.1 2.2q4.2 0.2 8.6 0.5zm-12.9-0.8q-4.4-0.3-8.6-0.6l-0.2 2.1q4.3 0.3 8.6 0.6zm-12.9-0.9q-4.3-0.3-8.6-0.6l-0.1 2.2q4.2 0.3 8.6 0.6zm-12.9-1q-4.4-0.3-8.6-0.6l-0.2 2.1q4.3 0.4 8.6 0.7zm-12.9-1q-4.3-0.4-8.6-0.7l-0.1 2.1q4.2 0.4 8.6 0.7zm-12.9-1.1q-4.3-0.3-8.6-0.7l-0.1 2.1q4.2 0.4 8.6 0.8zm-12.9-1.1q-4.4-0.4-8.6-0.8l-0.2 2.1q4.2 0.4 8.6 0.8zm-12.9-1.2q-4.3-0.4-8.6-0.9l-0.2 2.2q4.3 0.4 8.6 0.8zm-12.9-1.3q-4.3-0.4-8.5-0.9l-0.3 2.2q4.3 0.4 8.6 0.9zm-12.8-1.4q-4.4-0.5-8.6-1l-0.3 2.2q4.3 0.5 8.6 0.9zm-12.8-1.5q-4.3-0.5-8.6-1l-0.2 2.1q4.2 0.6 8.5 1.1zm-12.8-1.6q-4.3-0.6-8.5-1.2l-0.3 2.1q4.2 0.6 8.5 1.2zm-12.8-1.7q-4.3-0.6-8.5-1.3l-0.3 2.2q4.2 0.6 8.5 1.2zm-12.8-1.9q-4.3-0.6-8.5-1.3l-0.3 2.1q4.2 0.7 8.5 1.3zm-12.7-2q-4.3-0.7-8.5-1.5l-0.4 2.2q4.2 0.7 8.5 1.4zm-12.7-2.2q-4.3-0.8-8.5-1.6l-0.4 2.1q4.2 0.9 8.5 1.6zm-12.7-2.4q-4.3-0.8-8.4-1.7l-0.5 2.1q4.2 0.9 8.5 1.7zm-12.6-2.6q-4.3-1-8.4-1.9l-0.5 2.1q4.1 0.9 8.4 1.9zm-12.6-2.9q-4.2-1-8.3-2.1l-0.5 2.1q4.1 1.1 8.3 2.1zm-12.5-3.2q-4.2-1.1-8.3-2.3l-0.6 2.1q4.1 1.2 8.4 2.3zm-12.4-3.5q-4.2-1.3-8.3-2.5l-0.6 2q4 1.3 8.2 2.6zm-12.3-3.9q-4.1-1.4-8.1-2.8l-0.7 2.1q4 1.4 8.2 2.8zm-12.2-4.3q-4.1-1.5-8-3l-0.8 2q3.9 1.5 8.1 3.1zm-12.1-4.7q-4-1.6-7.9-3.3l-0.8 2q3.9 1.7 7.9 3.3zm-11.8-5q-4-1.8-7.8-3.6l-0.9 1.9q3.8 1.8 7.8 3.6zm-11.7-5.4q-3.8-1.9-7.6-3.9l-1 1.9q3.8 2 7.7 3.9zm-11.5-5.9q-3.8-2-7.5-4.1l-1.1 1.8q3.8 2.2 7.6 4.2zm-11.3-6.2q-3.7-2.2-7.3-4.4l-1.2 1.9q3.7 2.2 7.5 4.3zm-11.1-6.5q-3.7-2.3-7.3-4.6l-1.2 1.9q3.7 2.3 7.4 4.5z"/><path class="b" d="m1999.9 2633.7l0.5 0.2-0.5-0.2 0.5 0.2-0.5-0.2q0 0-0.3 0.4c-0.4 0.8-1.7 2.8-5 5.6l1.4 1.6c4.7-4.1 5.8-6.7 5.9-6.8zm-8.5 8.7c-2 1.4-4.3 3-7.1 4.7l1.1 1.8q4.4-2.6 7.2-4.8zm-10.7 6.8q-3.3 1.9-7.5 4l0.9 1.9q4.3-2.1 7.7-4zm-11.4 5.8q-3.7 1.6-7.9 3.4l0.8 2q4.3-1.8 7.9-3.5zm-11.8 5q-3.8 1.5-8 3l0.7 2.1q4.3-1.6 8.1-3.1zm-12.1 4.4q-3.9 1.4-8.1 2.7l0.6 2.1q4.3-1.4 8.2-2.7zm-12.2 4q-4 1.2-8.3 2.4l0.6 2.1q4.3-1.3 8.3-2.5zm-12.4 3.6q-4 1.1-8.3 2.3l0.6 2q4.3-1.1 8.3-2.2zm-12.5 3.3q-4 1-8.3 2.1l0.5 2.1q4.3-1.1 8.4-2.1zm-12.6 3q-4.1 1-8.4 1.9l0.5 2.1q4.3-0.9 8.4-1.9zm-12.6 2.9q-4.1 0.8-8.4 1.7l0.4 2.1q4.3-0.9 8.4-1.7zm-12.6 2.6q-4.1 0.8-8.5 1.6l0.4 2.1q4.4-0.8 8.5-1.6zm-12.7 2.4q-4.1 0.8-8.4 1.6l0.3 2.1q4.4-0.8 8.5-1.6zm-12.7 2.3q-4.2 0.7-8.5 1.4l0.4 2.2q4.3-0.7 8.5-1.5zm-12.8 2.2q-4.2 0.6-8.5 1.3l0.3 2.1q4.4-0.6 8.6-1.3zm-12.8 2q-4.2 0.6-8.5 1.2l0.3 2.2q4.3-0.6 8.5-1.3zm-12.8 1.9q-4.2 0.6-8.5 1.2l0.3 2.1q4.3-0.6 8.5-1.2zm-12.8 1.8q-4.2 0.6-8.5 1.1l0.3 2.1q4.3-0.5 8.5-1.1zm-12.8 1.7q-4.2 0.5-8.6 1l0.3 2.2q4.3-0.5 8.6-1.1zm-12.9 1.6q-4.2 0.5-8.5 1l0.2 2.1q4.3-0.5 8.6-1zm-12.9 1.5q-4.2 0.5-8.5 0.9l0.2 2.2q4.3-0.5 8.6-1zm-12.9 1.4q-4.2 0.5-8.5 0.9l0.2 2.1q4.3-0.4 8.6-0.8zm-12.9 1.3q-4.3 0.4-8.6 0.8l0.2 2.1q4.4-0.4 8.6-0.8zm-12.9 1.2q-4.2 0.4-8.6 0.8l0.2 2.2q4.4-0.4 8.6-0.8zm-12.9 1.1q-4.2 0.4-8.5 0.8l0.1 2.1q4.4-0.4 8.6-0.7zm-12.9 1.1q-4.2 0.3-8.6 0.7l0.2 2.1q4.4-0.3 8.6-0.7zm-12.9 1q-4.2 0.4-8.6 0.7l0.2 2.1q4.3-0.3 8.6-0.6zm-12.9 1q-4.3 0.3-8.6 0.6l0.1 2.1q4.4-0.3 8.7-0.6zm-12.9 0.9q-4.3 0.3-8.6 0.5l0.1 2.2q4.4-0.3 8.6-0.6zm-12.9 0.9q-4.2 0.2-8.6 0.5l0.2 2.2q4.3-0.3 8.6-0.6zm-12.9 0.8q-4.3 0.3-8.6 0.5l0.1 2.2q4.3-0.3 8.6-0.5zm-12.9 0.7q-4.3 0.3-8.6 0.5l0.1 2.1q4.3-0.2 8.6-0.4zm-12.9 0.7q-4.3 0.2-8.6 0.4l0.1 2.2q4.3-0.3 8.6-0.5zm-12.9 0.7q-4.3 0.2-8.6 0.4l0.1 2.1q4.3-0.2 8.6-0.4zm-12.9 0.6q-4.3 0.2-8.7 0.4l0.1 2.2q4.4-0.2 8.7-0.4zm-13 0.5q-4.2 0.2-8.6 0.4l0.1 2.1q4.3-0.1 8.6-0.3zm-12.9 0.6q-4.3 0.1-8.6 0.3l0.1 2.1q4.3-0.1 8.6-0.3zm-12.9 0.5q-4.3 0.1-8.6 0.3v2.1q4.4-0.1 8.7-0.3zm-13 0.5q-4.3 0.1-8.6 0.3l0.1 2.1q4.3-0.1 8.6-0.2zm-12.9 0.4q-4.3 0.1-8.7 0.2l0.1 2.2q4.3-0.2 8.6-0.3zm-12.9 0.4q-4.3 0.1-8.6 0.2v2.2q4.4-0.1 8.7-0.2zm-13 0.3q-4.2 0.1-8.6 0.2l0.1 2.2q4.3-0.1 8.6-0.2zm-12.9 0.3q-4.3 0.1-8.7 0.1l0.1 2.2q4.3-0.1 8.6-0.2zm-12.9 0.3q-4.3 0.1-8.7 0.1l0.1 2.2q4.3-0.1 8.6-0.2zm-12.9 0.3q-4.3 0.1-8.6 0.1v2.2q4.3-0.1 8.6-0.2zm-12.9 0.2q-4.3 0.1-8.6 0.2v2.1q4.3 0 8.6-0.1zm-12.9 0.2q-4.3 0-8.7 0.1l0.1 2.2q4.3-0.1 8.6-0.2zm-12.9 0.2q-4.3 0-8.7 0.1v2.2q4.4-0.1 8.7-0.1zm-13 0.1q-4.3 0-8.6 0v2.2q4.4 0 8.7-0.1zm-13 0.1q-4.3-0.1-8.6-0.2v2.2q4.3 0 8.6 0.1zm-12.9-0.2q-4.4-0.1-8.6-0.2l-0.1 2.2q4.3 0.1 8.6 0.1zm-12.9-0.2q-4.3-0.1-8.6-0.1l-0.1 2.1q4.3 0.1 8.7 0.2zm-13-0.3q-4.3 0-8.6-0.1v2.1q4.3 0.1 8.6 0.2zm-13-0.3q-4.3 0-8.6-0.1v2.1q4.3 0.1 8.6 0.2zm-12.9-0.3q-4.4 0-8.7-0.1v2.1q4.3 0.1 8.6 0.2zm-12.9-0.3q-4.3-0.1-8.6-0.2l-0.1 2.2q4.3 0.1 8.6 0.2zm-12.9-0.3q-4.3-0.1-8.6-0.2l-0.1 2.1q4.3 0.2 8.7 0.2zm-13-0.3q-4.3-0.1-8.6-0.2l-0.1 2.2q4.3 0.1 8.7 0.2zm-13-0.3q-4.3-0.1-8.6-0.2v2.1q4.2 0.1 8.6 0.2zm-13-0.3q-4.3-0.1-8.6-0.2v2.1q4.2 0.1 8.6 0.3zm-12.9-0.4q-4.4-0.1-8.7-0.3v2.2q4.3 0.1 8.6 0.3zm-12.9-0.4q-4.4-0.1-8.7-0.3v2.2q4.3 0.1 8.6 0.2zm-12.9-0.3q-4.4-0.2-8.6-0.3l-0.1 2.1q4.3 0.2 8.6 0.3zm-12.9-0.4q-4.4-0.1-8.6-0.3l-0.1 2.2q4.3 0.1 8.6 0.2zm-12.9-0.4q-4.4-0.1-8.6-0.3l-0.1 2.2q4.3 0.1 8.6 0.3zm-12.9-0.5q-4.4-0.1-8.7-0.3v2.1q4.3 0.2 8.6 0.4zm-12.9-0.5q-4.4-0.2-8.7-0.3v2.1q4.2 0.2 8.6 0.3zm-12.9-0.5q-4.4-0.1-8.7-0.3l-0.1 2.1q4.3 0.2 8.7 0.4zm-13-0.5q-4.3-0.2-8.6-0.4l-0.1 2.1q4.3 0.2 8.7 0.4zm-13-0.5q-4.3-0.2-8.6-0.4l-0.1 2.1q4.3 0.2 8.6 0.4zm-12.9-0.6q-4.3-0.2-8.6-0.4l-0.1 2.2q4.3 0.2 8.6 0.4zm-12.9-0.6q-4.4-0.2-8.6-0.5l-0.1 2.2q4.2 0.2 8.6 0.4zm-12.9-0.6q-4.4-0.3-8.6-0.5l-0.2 2.2q4.3 0.2 8.7 0.4zm-13-0.7q-4.3-0.2-8.6-0.5l-0.1 2.2q4.3 0.2 8.6 0.5zm-12.9-0.8q-4.3-0.2-8.6-0.5l-0.1 2.2q4.2 0.2 8.6 0.5zm-12.9-0.8q-4.4-0.3-8.6-0.5l-0.2 2.1q4.3 0.3 8.6 0.6zm-12.9-0.9q-4.3-0.3-8.6-0.6l-0.1 2.2q4.2 0.3 8.6 0.6zm-12.9-0.9q-4.4-0.3-8.6-0.6l-0.2 2.1q4.3 0.3 8.6 0.6zm-12.9-0.9q-4.3-0.3-8.6-0.7l-0.1 2.2q4.2 0.3 8.6 0.7zm-12.9-1q-4.4-0.4-8.6-0.7l-0.2 2.1q4.2 0.4 8.6 0.7zm-12.9-1.1q-4.3-0.3-8.6-0.7l-0.2 2.1q4.3 0.4 8.6 0.8zm-12.9-1.1q-4.3-0.4-8.5-0.8l-0.3 2.1q4.3 0.4 8.6 0.8zm-12.8-1.2q-4.4-0.4-8.6-0.9l-0.2 2.2q4.2 0.4 8.6 0.8zm-12.9-1.3q-4.3-0.4-8.6-0.9l-0.2 2.2q4.2 0.4 8.6 0.9zm-12.9-1.4q-4.3-0.5-8.5-1l-0.3 2.2q4.2 0.4 8.6 0.9zm-12.9-1.5q-4.3-0.5-8.5-1l-0.3 2.1q4.2 0.5 8.6 1.1zm-12.8-1.6q-4.4-0.6-8.6-1.2l-0.3 2.2q4.3 0.5 8.6 1.1zm-12.8-1.7q-4.3-0.7-8.5-1.3l-0.4 2.2q4.3 0.6 8.6 1.2zm-12.8-1.9q-4.3-0.7-8.5-1.3l-0.3 2.1q4.1 0.7 8.5 1.3zm-12.8-2q-4.3-0.7-8.5-1.5l-0.3 2.2q4.1 0.7 8.5 1.4zm-12.7-2.2q-4.4-0.8-8.5-1.6l-0.4 2.1q4.1 0.8 8.5 1.6zm-12.7-2.4q-4.3-0.9-8.4-1.7l-0.5 2.1q4.2 0.9 8.5 1.7zm-12.7-2.6q-4.2-1-8.4-1.9l-0.5 2.1q4.2 0.9 8.5 1.9zm-12.6-2.9q-4.3-1-8.3-2.1l-0.6 2.1q4.1 1 8.4 2.1zm-12.5-3.2q-4.2-1.1-8.3-2.3l-0.6 2.1q4.1 1.2 8.3 2.3zm-12.4-3.5q-4.2-1.2-8.2-2.5l-0.6 2q4 1.3 8.2 2.6zm-12.3-3.9q-4.1-1.4-8.1-2.8l-0.7 2.1q4 1.4 8.1 2.8zm-12.1-4.3q-4.1-1.5-8.1-3l-0.8 2q4 1.6 8.1 3.1zm-12.1-4.6q-4-1.6-7.9-3.3l-0.8 2q3.9 1.7 7.9 3.3zm-11.8-5q-4-1.8-7.8-3.6l-0.9 1.9q3.8 1.8 7.8 3.6zm-11.7-5.4q-3.8-2-7.6-3.9l-1 1.9q3.8 2 7.7 3.9zm-11.5-5.9q-3.8-2-7.5-4.2l-1.1 1.9q3.8 2.1 7.6 4.2zm-11.3-6.3q-3.7-2.1-7.3-4.3l-1.2 1.8q3.7 2.2 7.5 4.4zm-11.1-6.6q-3.7-2.2-7.3-4.5l-1.2 1.8q3.7 2.3 7.4 4.6z"/><path class="b" d="m255.9 1064.9c0.1 0 1.8 2.6 5.2 7.1l1.7-1.3c-1.7-2.3-3-4-3.8-5.2q-0.6-0.9-0.9-1.4-0.4-0.4-0.4-0.4zm7.8 10.5q2.4 3 5.5 6.8l1.6-1.4q-3-3.7-5.4-6.7zm8.3 10.1q2.6 3.1 5.7 6.5l1.6-1.4q-3.1-3.5-5.7-6.5zm8.6 9.7q2.8 3.1 5.9 6.4l1.6-1.5q-3.1-3.3-5.9-6.3zm8.9 9.4q2.9 3 6.1 6.2l1.5-1.6q-3.1-3.1-6-6.1zm9.1 9.2q3.1 3 6.3 6l1.5-1.6q-3.3-3-6.3-5.9zm9.5 8.9q3.1 2.8 6.4 5.8l1.4-1.6q-3.3-3-6.4-5.8zm9.7 8.6q3.2 2.8 6.6 5.7l1.4-1.7q-3.4-2.8-6.6-5.6zm9.9 8.4q3.3 2.7 6.8 5.4l1.3-1.7q-3.4-2.7-6.7-5.4zm10.1 8.1q3.4 2.7 6.9 5.3l1.3-1.7q-3.5-2.6-6.9-5.3zm10.4 7.9q3.4 2.5 7 5.1l1.2-1.8q-3.5-2.5-6.9-5zm10.5 7.5q3.5 2.5 7.1 4.9l1.2-1.8q-3.6-2.4-7.1-4.9zm10.8 7.3q3.5 2.4 7.2 4.7l1.2-1.8q-3.7-2.3-7.3-4.7zm11 7q3.6 2.3 7.3 4.6l1.1-1.9q-3.7-2.2-7.3-4.5zm11.1 6.7q3.7 2.2 7.5 4.4l1-1.9q-3.7-2.1-7.4-4.3zm11.2 6.4q3.8 2.1 7.6 4.1l1.1-1.9q-3.9-2-7.6-4.1zm11.4 6.2q3.8 2 7.7 3.9l1-1.9q-3.9-2-7.7-3.9zm11.6 5.8q3.8 1.9 7.8 3.8l0.9-2q-3.9-1.8-7.8-3.7zm11.7 5.6q3.9 1.7 7.9 3.5l0.9-2q-4-1.7-7.9-3.5zm11.9 5.2q3.9 1.7 8 3.4l0.8-2q-4-1.7-8-3.3zm12 4.9q4 1.6 8.1 3.2l0.7-2.1q-4-1.5-8-3.1zm12.1 4.7q4.1 1.4 8.2 2.9l0.7-2q-4.1-1.5-8.1-3zm12.2 4.4q4.1 1.4 8.2 2.7l0.7-2q-4.2-1.4-8.2-2.7zm12.3 4q4.1 1.3 8.3 2.5l0.6-2q-4.2-1.3-8.2-2.6zm12.4 3.8q4.1 1.2 8.3 2.3l0.6-2.1q-4.2-1.1-8.3-2.3zm12.5 3.4q4.1 1.1 8.4 2.2l0.5-2.1q-4.2-1.1-8.4-2.1zm12.6 3.1q4.2 1 8.4 1.9l0.5-2.1q-4.2-0.9-8.4-1.9zm12.6 2.8q4.2 0.9 8.5 1.7l0.4-2.1q-4.2-0.8-8.4-1.7zm12.8 2.5q4.2 0.8 8.5 1.6l0.3-2.2q-4.2-0.7-8.4-1.5zm12.7 2.3q4.3 0.7 8.6 1.3l0.3-2.1q-4.3-0.7-8.5-1.4zm12.8 2q4.2 0.6 8.6 1.1l0.2-2.1q-4.3-0.6-8.5-1.1zm12.8 1.6q4.3 0.5 8.6 0.9l0.3-2.1q-4.4-0.4-8.6-0.9zm12.9 1.3q4.3 0.4 8.6 0.8l0.2-2.2q-4.4-0.3-8.6-0.7zm12.9 1q4.3 0.4 8.6 0.6l0.1-2.1q-4.3-0.3-8.5-0.6zm12.9 0.8q4.3 0.2 8.6 0.4l0.1-2.2q-4.3-0.1-8.6-0.3zm13 0.5q0.5 0 1.1 0v-2.1q-0.5-0.1-1.1-0.1z"/><path class="b" d="m261.7 1056.7c0 0 1.7 2.6 5.2 7.1l1.7-1.3c-1.7-2.3-3-4-3.8-5.2q-0.7-0.9-1-1.4-0.3-0.4-0.3-0.4zm7.8 10.5q2.4 3.1 5.5 6.8l1.6-1.4q-3-3.7-5.4-6.7zm8.3 10.1q2.6 3.1 5.7 6.5l1.6-1.4q-3.1-3.5-5.7-6.5zm8.6 9.7q2.8 3.1 5.9 6.4l1.6-1.5q-3.1-3.3-5.9-6.3zm8.9 9.4q2.9 3 6.1 6.2l1.5-1.5q-3.2-3.2-6.1-6.2zm9.2 9.2q3 3 6.3 6l1.5-1.6q-3.3-3-6.3-5.9zm9.4 8.9q3.2 2.9 6.5 5.8l1.4-1.6q-3.3-2.9-6.4-5.8zm9.7 8.7q3.2 2.8 6.6 5.6l1.4-1.6q-3.4-2.9-6.6-5.6zm9.9 8.3q3.3 2.8 6.7 5.5l1.4-1.7q-3.4-2.7-6.7-5.4zm10.1 8.1q3.4 2.6 6.9 5.3l1.3-1.8q-3.5-2.6-6.9-5.2zm10.4 7.8q3.4 2.6 7 5.1l1.2-1.8q-3.5-2.5-6.9-5zm10.5 7.6q3.5 2.4 7.1 4.8l1.2-1.7q-3.6-2.5-7.1-4.9zm10.8 7.3q3.5 2.4 7.2 4.7l1.2-1.8q-3.7-2.4-7.3-4.7zm11 7q3.6 2.3 7.3 4.5l1.1-1.8q-3.7-2.3-7.3-4.5zm11.1 6.7q3.7 2.2 7.5 4.3l1-1.9q-3.7-2.1-7.4-4.3zm11.2 6.5q3.8 2.1 7.6 4.1l1-1.9q-3.8-2-7.5-4.1zm11.4 6.1q3.8 2 7.7 4l1-1.9q-3.9-2-7.7-4zm11.6 5.9q3.8 1.9 7.8 3.7l0.9-1.9q-3.9-1.9-7.8-3.7zm11.7 5.5q3.9 1.8 7.9 3.6l0.9-2q-4-1.8-7.9-3.5zm11.9 5.2q3.9 1.7 8 3.3l0.8-2q-4-1.6-8-3.3zm12 5q4 1.6 8.1 3.1l0.7-2q-4-1.5-8-3.1zm12.1 4.6q4 1.5 8.2 3l0.7-2.1q-4.1-1.4-8.1-2.9zm12.2 4.4q4 1.4 8.2 2.7l0.6-2.1q-4.1-1.3-8.1-2.7zm12.3 4.1q4.1 1.3 8.3 2.5l0.6-2.1q-4.2-1.2-8.3-2.5zm12.5 3.8q4.1 1.1 8.3 2.3l0.5-2.1q-4.1-1.1-8.2-2.3zm12.5 3.4q4.1 1.1 8.3 2.1l0.5-2.1q-4.2-1-8.3-2.1zm12.6 3.2q4.2 1 8.4 1.9l0.5-2.1q-4.3-0.9-8.4-1.9zm12.6 2.8q4.2 0.9 8.5 1.7l0.4-2.1q-4.2-0.8-8.4-1.7zm12.7 2.5q4.2 0.8 8.5 1.5l0.4-2.1q-4.3-0.7-8.5-1.5zm12.8 2.2q4.2 0.7 8.5 1.4l0.3-2.2q-4.3-0.6-8.5-1.3zm12.8 2q4.3 0.5 8.6 1.1l0.2-2.2q-4.2-0.5-8.5-1.1zm12.9 1.7q4.2 0.5 8.6 0.9l0.2-2.1q-4.3-0.5-8.6-1zm12.9 1.4q4.3 0.4 8.6 0.7l0.2-2.1q-4.3-0.4-8.6-0.8zm12.9 1.1q4.3 0.3 8.7 0.6l0.1-2.2q-4.3-0.2-8.6-0.5zm12.9 0.8q4.3 0.2 8.7 0.4v-2.2q-4.3-0.2-8.6-0.4zm13 0.5q0.5 0.1 1.1 0.1v-2.2q-0.5 0-1.1 0z"/><path class="b" d="m2428.9 1061.5q0 0-0.3 0.4c-0.6 0.9-2.1 3.2-4.6 6.5l1.7 1.3c3.3-4.5 4.9-7.1 5-7.1zm-7.4 10.4q-2.2 2.9-5.2 6.6l1.7 1.4q2.9-3.8 5.2-6.8zm-7.9 10q-2.5 3.1-5.4 6.5l1.6 1.3q3-3.4 5.5-6.5zm-8.2 9.7q-2.7 3-5.7 6.3l1.6 1.4q3-3.3 5.7-6.3zm-8.5 9.4q-2.8 3-5.8 6.1l1.5 1.5q3-3.2 5.8-6.2zm-8.7 9.2q-2.9 2.9-6 5.9l1.4 1.5q3.2-3 6.1-5.9zm-9.1 8.8q-3 2.9-6.2 5.8l1.5 1.6q3.2-3 6.2-5.8zm-9.3 8.6q-3.1 2.8-6.3 5.6l1.4 1.6q3.2-2.8 6.3-5.6zm-9.5 8.3q-3.2 2.7-6.5 5.5l1.4 1.6q3.3-2.7 6.5-5.5zm-9.8 8.2q-3.2 2.6-6.6 5.2l1.3 1.7q3.4-2.7 6.7-5.3zm-10 7.8q-3.3 2.6-6.7 5.1l1.2 1.7q3.5-2.5 6.8-5.1zm-10.1 7.6q-3.4 2.5-6.9 4.9l1.2 1.7q3.5-2.4 6.9-4.9zm-10.3 7.3q-3.5 2.4-7 4.7l1.1 1.8q3.6-2.4 7.1-4.7zm-10.6 7q-3.5 2.3-7.1 4.5l1.1 1.8q3.6-2.2 7.2-4.5zm-10.7 6.7q-3.6 2.2-7.3 4.4l1.1 1.8q3.7-2.2 7.3-4.4zm-10.9 6.5q-3.7 2.1-7.4 4.2l1 1.8q3.8-2.1 7.4-4.2zm-11 6.2q-3.7 2-7.5 4l1 1.8q3.8-1.9 7.5-3.9zm-11.2 5.8q-3.8 1.9-7.6 3.8l0.9 1.9q3.9-1.9 7.6-3.8zm-11.4 5.6q-3.7 1.8-7.6 3.6l0.9 1.9q3.8-1.8 7.6-3.6zm-11.5 5.3q-3.8 1.7-7.7 3.4l0.8 1.9q3.9-1.6 7.8-3.3zm-11.6 4.9q-3.9 1.6-7.9 3.2l0.8 2q4-1.6 7.9-3.2zm-11.8 4.7q-3.9 1.5-7.9 2.9l0.7 2q4-1.5 7.9-3zm-11.9 4.4q-3.9 1.4-7.9 2.7l0.6 2.1q4.1-1.4 8-2.8zm-11.9 4.1q-4 1.3-8.1 2.5l0.6 2q4.1-1.2 8.1-2.5zm-12.1 3.7q-4 1.2-8.1 2.3l0.6 2.1q4.1-1.2 8.1-2.3zm-12.2 3.4q-4 1.1-8.2 2.1l0.6 2.1q4.1-1.1 8.2-2.2zm-12.3 3.2q-4.1 1-8.2 1.9l0.4 2q4.2-0.9 8.3-1.9zm-12.3 2.8q-4.1 0.9-8.3 1.8l0.4 2q4.2-0.8 8.3-1.7zm-12.4 2.5q-4.1 0.8-8.3 1.5l0.3 2.1q4.2-0.7 8.4-1.5zm-12.5 2.2q-4.1 0.7-8.3 1.3l0.3 2.1q4.2-0.6 8.4-1.3zm-12.6 1.9q-4.1 0.6-8.3 1.1l0.2 2.1q4.3-0.5 8.4-1.1zm-12.5 1.6q-4.2 0.5-8.4 0.9l0.2 2.1q4.2-0.4 8.4-0.9zm-12.6 1.3q-4.1 0.4-8.4 0.7l0.2 2.2q4.2-0.4 8.4-0.8zm-12.6 1.1q-4.2 0.2-8.4 0.5l0.1 2.1q4.2-0.2 8.4-0.5zm-12.6 0.7q-4.2 0.2-8.4 0.3v2.1q4.3-0.1 8.5-0.3z"/><path class="b" d="m2423.3 1053.3q0 0-0.3 0.4c-0.6 0.9-2.1 3.2-4.5 6.5l1.7 1.3c3.3-4.5 4.9-7.1 4.9-7.1zm-7.4 10.4q-2.2 2.9-5.1 6.6l1.6 1.4q3-3.8 5.2-6.8zm-7.8 10q-2.5 3.1-5.4 6.5l1.6 1.4q2.9-3.5 5.4-6.6zm-8.2 9.7q-2.6 3.1-5.6 6.3l1.6 1.4q3-3.2 5.6-6.3zm-8.5 9.4q-2.8 3-5.8 6.1l1.5 1.5q3.1-3.1 5.9-6.1zm-8.8 9.1q-2.9 2.9-6 5.9l1.5 1.6q3.1-3.1 6-6zm-9 8.9q-3 2.8-6.2 5.7l1.4 1.6q3.2-2.9 6.2-5.8zm-9.3 8.6q-3 2.8-6.3 5.6l1.4 1.6q3.3-2.8 6.3-5.6zm-9.5 8.4q-3.1 2.7-6.4 5.4l1.3 1.6q3.3-2.7 6.5-5.4zm-9.7 8.1q-3.2 2.6-6.6 5.2l1.3 1.7q3.4-2.7 6.6-5.3zm-9.9 7.9q-3.3 2.5-6.8 5l1.3 1.7q3.4-2.5 6.8-5.1zm-10.2 7.6q-3.4 2.5-6.9 4.9l1.3 1.7q3.5-2.4 6.9-4.9zm-10.4 7.3q-3.4 2.4-7 4.8l1.2 1.7q3.5-2.3 7-4.7zm-10.5 7q-3.5 2.3-7.2 4.5l1.2 1.8q3.6-2.2 7.1-4.5zm-10.7 6.7q-3.6 2.2-7.2 4.4l1 1.8q3.7-2.2 7.3-4.4zm-10.9 6.5q-3.6 2.1-7.4 4.1l1.1 1.9q3.7-2.1 7.4-4.2zm-11.1 6.2q-3.7 2-7.5 3.9l1 1.9q3.8-1.9 7.5-3.9zm-11.2 5.8q-3.7 1.9-7.6 3.8l1 1.9q3.8-1.9 7.6-3.8zm-11.4 5.6q-3.8 1.8-7.6 3.6l0.9 1.9q3.8-1.8 7.6-3.6zm-11.5 5.3q-3.8 1.7-7.7 3.4l0.8 1.9q3.9-1.6 7.8-3.4zm-11.6 5q-3.9 1.6-7.9 3.2l0.8 1.9q4-1.5 7.9-3.1zm-11.8 4.6q-3.9 1.5-7.9 3l0.7 2q4-1.5 7.9-3zm-11.9 4.4q-3.9 1.4-7.9 2.7l0.6 2q4.1-1.3 8-2.7zm-12 4q-3.9 1.3-8 2.6l0.6 2q4.1-1.2 8.1-2.5zm-12.1 3.7q-4 1.2-8.1 2.3l0.6 2.1q4.1-1.2 8.1-2.4zm-12.2 3.5q-4 1.1-8.1 2.1l0.5 2.1q4.1-1.1 8.2-2.2zm-12.3 3.2q-4.1 0.9-8.2 1.9l0.4 2q4.2-0.9 8.3-1.9zm-12.3 2.8q-4.2 0.9-8.3 1.7l0.4 2.1q4.2-0.8 8.3-1.7zm-12.4 2.5q-4.1 0.8-8.3 1.5l0.3 2.1q4.2-0.8 8.4-1.5zm-12.5 2.2q-4.1 0.7-8.3 1.3l0.3 2.1q4.2-0.7 8.4-1.3zm-12.6 1.9q-4.1 0.6-8.3 1.1l0.2 2.1q4.3-0.6 8.4-1.1zm-12.5 1.6q-4.2 0.5-8.4 0.9l0.2 2.1q4.2-0.5 8.4-0.9zm-12.6 1.3q-4.1 0.4-8.4 0.7l0.2 2.1q4.2-0.3 8.4-0.7zm-12.6 1q-4.2 0.3-8.4 0.5l0.1 2.1q4.2-0.2 8.4-0.5zm-12.6 0.8q-4.2 0.2-8.4 0.3v2.1q4.3-0.1 8.5-0.3z"/><path class="a" d="m574.4 473.8c0 0 157 278.7 155.1 673.1"/><path class="b" d="m571.7 475.3q-0.1 0 0.1 0.2c4.5 8.1 154.6 280.4 154.6 664.1q0 3.6 0 7.3l6.2 0.1q0-3.7 0-7.4c0-391.4-155.4-667.1-155.5-667.4z"/><path class="a" d="m2120.3 474.3c0 0-157.1 274.7-155.1 663.5"/><path class="b" d="m2117.6 472.8c-0.1 0.2-155.5 271.9-155.5 657.7q0 3.6 0 7.3h6.2q0-3.7 0-7.3c0-192 38.7-355.8 77.4-471.4 19.3-57.9 38.7-103.7 53.2-135.1 7.2-15.7 13.2-27.7 17.5-35.9 2.1-4 3.7-7.1 4.9-9.2q0.8-1.5 1.2-2.3 0.3-0.4 0.4-0.6 0.1-0.2 0.1-0.2z"/><path class="a" d="m1073.9 315.8c0 0 71.9 22 261 25.6 148.2 2.2 273.9-18.4 294-32.9 9.2-18.7-3.1-40.9-3.1-40.9 0 0-151.6 30-319.8 20.7-168.3-9.4-249.6-21.3-249.6-21.3l3.7 33.8z"/><path class="b" d="m1073.9 315.8l-0.9 3c0.3 0.1 72.6 22.1 261.9 25.6q11.4 0.2 22.7 0.2c69.2 0 132.3-4.8 180.7-11.4 24.1-3.3 44.6-7 60.3-10.7 7.8-1.9 14.5-3.8 19.8-5.7q4-1.4 7.1-2.9c2-0.9 3.7-1.8 5.2-2.9q0.6-0.4 0.9-1.1c2.8-5.6 3.8-11.5 3.8-17 0-7.3-1.7-13.9-3.4-18.8-1.7-4.9-3.4-7.9-3.5-8-0.6-1.2-2-1.8-3.3-1.6q0 0-0.3 0.1c-6.7 1.3-117.2 22.4-252.1 22.4-21.7 0-44-0.6-66.7-1.8-84-4.7-146.4-10-187.7-14.2-20.7-2-36.1-3.8-46.3-5.1q-7.7-0.9-11.5-1.4-1.9-0.3-2.8-0.4-1-0.2-0.9-0.2c-1-0.1-2 0.2-2.6 0.9-0.7 0.6-1.1 1.6-1 2.5l3.8 33.8q0.1 1 0.8 1.8l13.7 15q0.6 0.6 1.4 0.9l0.9-3 2.2-2.1-13-14.3-3.6-32.7-3.1 0.3-0.4 3.1c0.1 0 81.4 11.9 249.8 21.3 22.8 1.2 45.2 1.8 67 1.8 139.9 0 253.5-22.6 253.6-22.6l-0.6-3-2.7 1.5 0.5-0.3-0.5 0.3 0.5-0.3-0.5 0.3c0.1 0 1.6 2.9 3.1 7.3 1.5 4.3 3 10.3 3 16.5 0 4.8-0.8 9.7-3.1 14.3l2.8 1.3-1.8-2.5q-1.5 1.1-4.2 2.4c-3.4 1.5-8.1 3.2-14 5-10.3 3-24.1 6.1-40.7 9-50.1 8.7-125.8 16-210.6 16q-11.2 0-22.6-0.1c-94.4-1.8-159.6-8.2-201.1-14.1-20.7-3-35.5-5.8-45.2-7.9-4.8-1.1-8.3-1.9-10.6-2.5q-1.7-0.5-2.5-0.7-0.5-0.1-0.7-0.2h-0.1l-0.9 2.9 2.2-2.1z"/><path class="a" d="m1700 259.8l-48.7-37c-103.1 28.1-240.3 33.3-285.8 34.3v-0.1l-26.4 0.3c0 0-175.9-0.3-301.4-34.5l-48.6 37c0 0 74.6 53.2 346.4 54.4h0.1l16.7 0.2v-0.2c272.8-1 347.7-54.4 347.7-54.4z"/><path fill-rule="evenodd" d="m1700 259.8q0 0-0.5 0.3l-0.3-0.8zm-348.6 54.6l-1.1-0.1-1.5-57.1 1.1-0.1zm-12.2-0.1h-1.1l-1-57q0.6 0 1.1 0zm-12.2-0.1q-0.6 0-1.1 0l-0.4-57.1q0.5 0 1 0.1zm-12.2-0.2q-0.5 0-1.1 0l0.2-57.1q0.5 0 1 0zm-12.2-0.2q-0.5 0-1.1-0.1l0.7-57.2q0.6 0 1.1 0zm-12.2-0.3q-0.6 0-1.1 0l1.3-57.5q0.5 0.1 1 0.1zm-12.2-0.4q-0.5 0-1.1 0l1.9-57.6q0.6 0 1.1 0zm-12.2-0.4q-0.6 0-1.1-0.1l2.4-57.7q0.6 0.1 1.1 0.1zm-12.2-0.6q-0.6 0-1.1 0l3.1-57.8q0.5 0 1 0zm-12.2-0.6q-0.5 0-1.1-0.1l3.7-57.9q0.5 0.1 1.1 0.1zm-12.2-0.7q-0.6-0.1-1.2-0.1l4.4-58q0.5 0 1 0.1zm-12.2-0.9q-0.5 0-1.1 0l4.9-58.1q0.6 0.1 1.1 0.1zm-12.2-0.9q-0.6-0.1-1.1-0.1l5.6-58.1q0.5 0.1 1 0.1zm-12.2-1q-0.5-0.1-1.1-0.1l6.2-58.1q0.5 0 1.1 0.1zm-12.2-1.2q-0.6 0-1.1-0.1l6.8-58q0.6 0 1.1 0.1zm-12.2-1.3q-0.6-0.1-1.1-0.1l7.5-58q0.6 0.1 1.1 0.1zm-12.2-1.4q-0.6-0.1-1.1-0.1l8.2-57.9q0.5 0.1 1 0.2zm-12.2-1.6q-0.5-0.1-1.1-0.2l8.9-57.7q0.5 0.1 1.1 0.2zm-12.2-1.8q-0.6 0-1.1-0.1l9.5-57.5q0.6 0.1 1.1 0.1zm-12.2-1.8q-0.5-0.1-1.1-0.2l10.2-57.3q0.6 0.1 1.1 0.2zm-12.1-2.1q-0.6-0.1-1.1-0.2l10.9-56.9q0.5 0.1 1 0.2zm-12.1-2.3q-0.6-0.1-1.1-0.2l11.6-56.5q0.5 0.1 1 0.1zm-12.1-2.4q-0.5-0.1-1.1-0.3l12.3-56.1q0.6 0.1 1.1 0.2zm-12.1-2.7q-0.5-0.1-1.1-0.2l13-55.6q0.5 0.1 1 0.2zm-12-2.9q-0.5-0.2-1.1-0.3l13.7-54.9q0.5 0.1 1 0.2zm-11.9-3.3q-0.6-0.1-1.1-0.3l14.3-54.2q0.6 0.2 1.1 0.3zm-12-3.6q-0.5-0.2-1-0.3l15-53.3q0.5 0.1 1 0.2zm-11.8-3.9q-0.5-0.2-1.1-0.4l15.7-52.2q0.6 0.1 1.1 0.3zm-11.8-4.5q-0.5-0.2-1-0.4l11.6-36.1 1.5-1.1zm-11.6-5.1q-0.5-0.2-1-0.5l6.2-18 1.6-1.2zm360.2-8.8h1.1l2 57q-0.6 0-1.1 0zm11.7-0.2q0.5 0 1 0l2.5 57.1q-0.6 0-1.1 0zm11.7-0.3q0.5 0 1 0l2.9 57.2q-0.6 0-1.1 0zm11.7-0.4q0.5 0 1-0.1l3.4 57.4q-0.6 0-1.1 0zm11.6-0.5q0.6 0 1.1 0l3.8 57.5q-0.6 0-1.1 0zm11.7-0.6q0.5 0 1 0l4.3 57.6q-0.6 0-1.1 0zm11.7-0.6q0.5-0.1 1-0.1l4.8 57.7q-0.6 0-1.1 0.1zm11.6-0.8q0.6 0 1.1 0l5.2 57.8q-0.5 0-1.1 0zm11.7-0.8q0.5 0 1-0.1l5.8 57.9q-0.6 0.1-1.1 0.1zm11.6-0.9q0.5 0 1.1-0.1l6.2 57.9q-0.6 0.1-1.1 0.1zm11.6-0.9q0.6-0.1 1.1-0.1l6.7 57.9q-0.5 0.1-1.1 0.1zm11.7-1q0.5-0.1 1-0.1l7.3 57.9q-0.6 0.1-1.1 0.1zm11.6-1.1q0.5-0.1 1.1-0.1l7.7 57.9q-0.5 0-1.1 0.1zm11.6-1.2q0.6-0.1 1.1-0.2l8.3 57.9q-0.6 0.1-1.1 0.1zm11.6-1.3q0.5-0.1 1.1-0.1l8.8 57.7q-0.6 0.1-1.1 0.2zm11.6-1.5q0.5 0 1.1-0.1l9.3 57.6q-0.5 0.1-1.1 0.2zm11.6-1.6q0.5 0 1.1-0.1l9.9 57.4q-0.6 0.1-1.1 0.2zm11.5-1.7q0.6 0 1.1-0.1l10.5 57.2q-0.6 0.1-1.1 0.2zm11.5-1.8q0.5-0.1 1.1-0.2l11 56.9q-0.6 0.1-1.1 0.2zm11.5-1.9q0.5-0.1 1.1-0.1l11.5 56.5q-0.5 0.1-1.1 0.2zm11.5-2q0.6-0.1 1.1-0.2l12.1 56.1q-0.5 0.2-1.1 0.3zm11.5-2.2q0.5-0.1 1-0.2l12.7 55.6q-0.5 0.1-1.1 0.3zm11.5-2.4q0.5-0.1 1-0.2l13.2 55q-0.5 0.2-1 0.3zm11.4-2.5q0.5-0.1 1-0.2l13.8 54.3q-0.6 0.2-1.1 0.3zm11.3-2.7q0.6-0.1 1.1-0.3l14.3 53.5q-0.5 0.2-1.1 0.4zm11.3-3q0.5-0.1 1-0.2l14.9 52.4q-0.5 0.2-1.1 0.4zm15.3 10.5l1.4 1.1 10.9 36.1q-0.5 0.3-1.1 0.5zm16.5 12.5l1.5 1.1 5.9 18.5q-0.5 0.3-1 0.5z"/><path class="b" d="m1700 259.8l1.8-2.4-48.6-37.1c-0.8-0.6-1.8-0.7-2.7-0.5-51.3 14-111.2 22.3-164 27.3-52.8 4.9-98.4 6.4-121.1 6.9l0.1 3.1 3 0.7v-0.1c0.2-0.9 0-1.9-0.6-2.6-0.6-0.7-1.5-1.2-2.5-1.2l-26.3 0.3v3.1h3.1c0-1.7-1.4-3.1-3.1-3.1q0 0-2 0c-9.8-0.1-55.2-0.7-112.8-5.3-57.5-4.5-127.3-13.1-185.8-29.1-0.9-0.2-1.9-0.1-2.7 0.5l-48.6 37.1c-0.8 0.6-1.2 1.5-1.2 2.5 0 1 0.5 1.9 1.3 2.4 0.3 0.3 19.4 13.7 72.3 27.3 53 13.5 139.8 27.1 275.9 27.7v-3.1l-1.5 2.7h0.1q0.7 0.4 1.5 0.4l16.6 0.2c1.5 0 2.7-1 3.1-2.4v-0.2l-3-0.7v3.1c136.6-0.5 223.8-14.1 276.9-27.7 53.1-13.5 72.2-27 72.6-27.3 0.8-0.5 1.2-1.4 1.2-2.4 0.1-1-0.4-1.9-1.2-2.5l-1.8 2.4-1.8-2.5 1 1.5-1-1.5 1 1.5-1-1.5q0 0-0.2 0.1c-4.5 3.1-82.9 52.7-345.7 53.7-1.4 0-2.7 1-3 2.4v0.2l3 0.7v-3.1l-16.7-0.2v3.1l1.5-2.6-0.1-0.1q-0.7-0.4-1.5-0.4c-135.7-0.6-222-14.2-274.4-27.5-26.1-6.7-43.8-13.3-54.9-18.3-5.5-2.4-9.4-4.5-11.9-5.9q-1.8-1-2.7-1.6-0.4-0.3-0.6-0.4l-0.1-0.1-1.1 1.5 1.1-1.5-1.1 1.5 1.1-1.5-1.8 2.5 1.8 2.5 48.7-37.1-1.9-2.4-0.8 3c63.1 17.2 138.5 25.8 198.3 30.1 59.8 4.4 103.8 4.5 103.9 4.5v-3.1h-3.1c0 0.8 0.3 1.6 0.9 2.2 0.6 0.6 1.4 0.9 2.2 0.9l26.4-0.3v-3.1l-3-0.7v0.1c-0.3 0.9 0 1.9 0.6 2.6 0.6 0.7 1.5 1.2 2.4 1.1 22.9-0.4 68.6-2 121.6-6.9 53-4.9 113.2-13.3 165-27.4l-0.8-3-1.8 2.4 48.6 37.1 1.9-2.5-1.8-2.5z"/><path class="a" d="m1700 261.1l-48.7-39.8c0 0-64 221.3-306.8 219.6-242.7 1.7-306.8-219.6-306.8-219.6l-48.6 39.8c0 0 66.8 236.7 353.1 235.7 0.8 0 1.5 0 2.3 0 0.8 0 1.6 0 2.3 0 286.3 1 353.2-235.7 353.2-235.7z"/><path fill-rule="evenodd" d="m1342.2 496.8q-0.1 0-0.3 0l3.3-55.9q0.5 0 1 0l-3.1 55.9q-0.5 0-0.9 0zm-11.8-0.1q-0.6 0-1.2-0.1l5.1-55.8q0.5 0.1 1 0.1zm-12.5-0.4q-0.6-0.1-1.2-0.1l6.4-55.7q0.5 0 1 0zm-12.5-0.7q-0.6-0.1-1.1-0.1l7.8-55.7q0.5 0 1 0.1zm-12.6-1.1q-0.5 0-1.1-0.1l9.3-55.7q0.5 0.1 1 0.2zm-12.6-1.5q-0.6 0-1.1-0.1l10.8-55.6q0.5 0.1 1 0.1zm-12.6-1.8q-0.6-0.1-1.1-0.2l12.3-55.5q0.5 0.1 1 0.2zm-12.5-2.2q-0.6-0.1-1.2-0.2l14-55.5q0.5 0.1 1 0.2zm-12.5-2.5q-0.5-0.2-1.1-0.3l15.6-55.3q0.5 0.1 1 0.2zm-12.4-3q-0.6-0.1-1.1-0.3l17.4-55.2q0.4 0.2 0.9 0.3zm-12.3-3.4q-0.6-0.2-1.2-0.4l19.2-55q0.5 0.2 1 0.4zm-12.3-3.9q-0.6-0.2-1.1-0.4l21-54.7q0.5 0.1 0.9 0.3zm-12.1-4.3q-0.6-0.2-1.1-0.4l22.9-54.4q0.4 0.2 0.9 0.3zm-12-4.7q-0.6-0.2-1.1-0.5l24.8-54q0.4 0.2 0.9 0.4zm-11.9-5.2q-0.5-0.3-1.1-0.5l26.7-53.6q0.5 0.2 0.9 0.4zm-11.7-5.6q-0.5-0.3-1-0.6l28.6-53q0.5 0.2 0.9 0.4zm-11.5-6.1q-0.5-0.3-1-0.5l30.6-52.5q0.4 0.3 0.9 0.5zm-11.3-6.5q-0.5-0.3-1-0.6l32.5-51.7q0.4 0.2 0.9 0.5zm-11-7q-0.5-0.3-1-0.6l34.4-50.9q0.4 0.3 0.8 0.6zm-10.7-7.5q-0.5-0.3-0.9-0.6l36.3-50q0.4 0.3 0.8 0.6zm-10.5-7.8q-0.4-0.4-0.9-0.8l38.2-48.9q0.3 0.4 0.7 0.7zm-10.1-8.3q-0.4-0.3-0.9-0.7l39.9-47.8q0.4 0.3 0.8 0.6zm-9.8-8.6q-0.4-0.4-0.9-0.8l41.7-46.6q0.3 0.4 0.7 0.7zm-9.4-8.9q-0.5-0.5-0.9-0.9l43.3-45.2q0.3 0.3 0.7 0.7zm-9.1-9.4q-0.4-0.4-0.8-0.8l44.8-43.9q0.3 0.4 0.7 0.7zm-8.7-9.6q-0.4-0.5-0.8-0.9l46.2-42.4q0.4 0.3 0.7 0.7zm-8.3-9.9q-0.4-0.5-0.8-0.9l47.6-40.9q0.3 0.3 0.6 0.7zm-7.9-10.2q-0.4-0.4-0.7-0.9l48.8-39.3q0.3 0.4 0.6 0.8zm-7.5-10.5q-0.4-0.5-0.7-1l50-37.7q0.3 0.4 0.6 0.8zm-7.2-10.7q-0.3-0.5-0.6-1l50.9-36q0.3 0.5 0.6 0.9zm-6.8-11q-0.3-0.5-0.6-1l51.9-34.2q0.3 0.4 0.5 0.8zm-6.3-11.2q-0.3-0.5-0.6-1l52.7-32.5q0.2 0.5 0.5 0.9zm-6-11.4q-0.2-0.5-0.5-1l53.4-30.6q0.2 0.4 0.4 0.8zm-5.5-11.5q-0.2-0.6-0.5-1.1l53.9-28.8q0.2 0.5 0.4 0.9zm-5-11.7q-0.2-0.6-0.5-1.1l54.2-26.8q0.2 0.4 0.4 0.9zm-4.4-12q-0.2-0.6-0.4-1.1l54.3-24.8q0.2 0.5 0.4 0.9zm17.9-21.4l3-2.4 29.1-12.1q0.2 0.5 0.3 0.9zm347.2 195.8q0.5 0 1 0l-1 55.9q-0.6 0-1.2 0.1zm10.7-0.4q0.5-0.1 0.9-0.1l1.1 56q-0.6 0-1.1 0zm10.6-0.6q0.4-0.1 0.9-0.1l3.2 56q-0.5 0-1.1 0.1zm10.5-1q0.5-0.1 1-0.1l5.4 56q-0.6 0.1-1.2 0.1zm10.5-1.3q0.5-0.1 1-0.1l7.6 56q-0.5 0-1.1 0.1zm10.4-1.6q0.5-0.1 0.9-0.2l10 55.9q-0.6 0.1-1.1 0.2zm10.3-2q0.5-0.1 0.9-0.2l12.3 55.7q-0.6 0.2-1.1 0.3zm10.2-2.3q0.5-0.2 1-0.3l14.6 55.6q-0.6 0.1-1.2 0.2zm10.2-2.6q0.5-0.2 1-0.3l16.9 55.2q-0.5 0.2-1.1 0.3zm10.1-3q0.5-0.1 0.9-0.3l19.3 54.9q-0.5 0.2-1.1 0.3zm10-3.3q0.5-0.2 0.9-0.4l21.7 54.5q-0.6 0.2-1.1 0.3zm9.9-3.7q0.5-0.2 0.9-0.3l24 53.9q-0.6 0.2-1.1 0.4zm9.8-4.1q0.4-0.2 0.9-0.4l26.2 53.3q-0.6 0.3-1.1 0.5zm9.7-4.5q0.4-0.2 0.9-0.4l28.5 52.6q-0.6 0.3-1.1 0.5zm9.5-4.8q0.5-0.2 0.9-0.5l30.7 51.9q-0.6 0.3-1.1 0.6zm9.4-5.2q0.4-0.3 0.9-0.5l32.7 51q-0.5 0.3-1 0.6zm9.2-5.6q0.5-0.2 0.9-0.5l34.8 50.1q-0.5 0.4-1 0.7zm9.1-6q0.4-0.3 0.8-0.5l36.7 49.1q-0.4 0.3-0.9 0.7zm8.8-6.3q0.4-0.3 0.8-0.6l38.7 48.1q-0.5 0.3-1 0.7zm8.7-6.6q0.4-0.4 0.8-0.7l40.4 47q-0.5 0.4-0.9 0.7zm8.4-6.9q0.4-0.3 0.8-0.7l42.1 45.8q-0.4 0.4-0.9 0.8zm8.2-7.3q0.4-0.3 0.8-0.7l43.7 44.6q-0.4 0.4-0.9 0.8zm8-7.6q0.4-0.4 0.7-0.7l45.2 43.2q-0.4 0.4-0.8 0.9zm7.7-7.9q0.4-0.4 0.7-0.8l46.6 41.9q-0.4 0.5-0.8 0.9zm7.5-8.2q0.3-0.4 0.6-0.7l48 40.5q-0.4 0.4-0.8 0.8zm7.2-8.4q0.3-0.4 0.6-0.8l49.1 39.1q-0.3 0.4-0.7 0.9zm6.9-8.7q0.3-0.4 0.6-0.8l50.3 37.5q-0.4 0.5-0.7 1zm6.6-8.9q0.3-0.4 0.6-0.9l51.2 36q-0.3 0.5-0.7 0.9zm6.4-9.1q0.3-0.4 0.6-0.8l52.1 34.3q-0.3 0.5-0.6 1zm6-9.3q0.3-0.4 0.6-0.9l53 32.6q-0.3 0.5-0.7 1zm5.8-9.4q0.3-0.5 0.5-0.9l53.7 30.8q-0.3 0.5-0.5 1zm5.4-9.6q0.3-0.5 0.5-0.9l54.3 28.9q-0.2 0.5-0.5 1zm5.1-9.7q0.3-0.5 0.5-0.9l54.8 26.8q-0.2 0.6-0.4 1.1zm4.8-9.9q0.2-0.4 0.4-0.9l55.3 24.7q-0.3 0.5-0.5 1.1zm4.5-10q0.2-0.4 0.4-0.9l55.4 22.2q-0.2 0.5-0.4 1.1zm4.1-10q0.2-0.4 0.3-0.9l34.5 12 2.6 2.2zm3.6-10q0.1-0.5 0.3-0.9l6.1 1.8 2 1.6z"/><path class="b" d="m1700 261.1l1.9-2.4-48.6-39.8c-0.8-0.6-1.9-0.8-2.9-0.5-1 0.3-1.8 1.1-2 2.1-0.5 1.4-16.7 56-62.4 109.9-22.8 27-52.9 53.8-92.1 74-39.2 20-87.5 33.4-146.7 33.4q-1.3 0-2.7 0-1.4 0-2.7 0c-59.7 0-108.2-13.6-147.6-33.9-59-30.6-97.4-76.4-121.1-114.7-11.8-19.2-19.9-36.4-25.1-48.8-2.6-6.2-4.4-11.2-5.6-14.7q-0.9-2.6-1.3-3.9-0.2-0.7-0.3-1-0.1-0.2-0.1-0.3c-0.3-1-1.1-1.8-2.1-2.1-1-0.3-2-0.1-2.9 0.5l-48.6 39.8c-0.9 0.7-1.3 2-1 3.2 0.1 0.3 16.8 59.6 69.5 119.1 26.4 29.7 61.7 59.4 108.4 81.7 46.7 22.3 104.7 37.2 176.2 37.2q1 0 2-0.1v-3h-3.1c0 1.7 1.4 3.1 3 3.1h0.3c0.8 0 1.4 0 2 0h0.1 0.2c0.5 0 1.2 0 1.9 0h0.3c1.7 0 3-1.4 3-3.1h-3.1v3q1 0.1 2 0.1c71.6 0 129.6-14.9 176.3-37.2 70-33.4 114.5-83.6 141.4-125.4 26.9-41.8 36.4-75.2 36.4-75.4 0.4-1.2 0-2.5-1-3.2l-1.9 2.4-3-0.9c-0.4 1.6-17.5 60.1-69.4 118-26 29-60.6 57.9-106.3 79.5-45.7 21.6-102.4 36-172.5 36q-1 0-1.9 0c-0.9 0-1.7 0.3-2.2 0.9-0.6 0.6-0.9 1.3-0.9 2.2h3v-3.1h-0.2c-0.5 0-1.2 0-1.9 0h-0.2v3.1l0.1-3.1h-0.2c-0.8 0-1.4 0-2 0h-0.2v3.1h3.1c0-0.9-0.4-1.6-0.9-2.2-0.6-0.6-1.4-0.9-2.2-0.9q-1 0-2 0c-70.7 0-127.7-14.6-173.6-36.6-68.7-32.8-112.4-82-138.9-123.1-13.2-20.6-22.1-39.1-27.8-52.4-2.8-6.7-4.8-12-6-15.7q-1-2.8-1.4-4.3-0.3-0.7-0.4-1 0-0.2 0-0.3l-0.1-0.1-2.9 0.9 1.9 2.3 48.7-39.7-2-2.4-3 0.9c0.1 0.2 16.1 55.5 62.5 110.9 23.2 27.7 54 55.4 94.2 76.3 40.2 20.8 89.8 34.6 150.4 34.6q1.4 0 2.7 0v-3.1 3.1q1.4 0 2.7 0c60.6 0 110.2-13.8 150.4-34.6 60.3-31.3 99.5-78 123.5-117 24.1-38.9 33.1-70 33.2-70.2l-3-0.9-1.9 2.4 48.6 39.7 2-2.3-3-0.9z"/><path class="b" d="m979.2 266.4c0 0 0.9 3 2.9 8.3l2.5-0.9c-1-2.6-1.7-4.7-2.1-6.1q-0.4-1-0.5-1.5-0.2-0.6-0.2-0.6zm4 11.4q1.3 3.6 3.2 8.1l2.5-1q-1.9-4.5-3.2-8zm4.5 11.1q1.6 3.7 3.5 7.9l2.5-1.1q-1.9-4.2-3.5-7.9zm4.9 10.9q1.8 3.7 3.8 7.8l2.4-1.3q-2-4-3.8-7.7zm5.3 10.7q1.9 3.7 4.1 7.7l2.4-1.3q-2.2-3.9-4.1-7.6zm5.7 10.5q2 3.7 4.3 7.5l2.3-1.4q-2.2-3.8-4.3-7.4zm6 10.3q2.2 3.6 4.6 7.3l2.3-1.4q-2.4-3.7-4.6-7.3zm6.4 10.1q2.3 3.5 4.8 7.2l2.2-1.5q-2.5-3.7-4.8-7.2zm6.7 9.9q2.4 3.5 5 7l2.2-1.5q-2.6-3.6-5-7zm6.9 9.6q2.6 3.5 5.3 6.9l2.1-1.6q-2.7-3.5-5.2-6.9zm7.3 9.5q2.6 3.3 5.4 6.7l2.1-1.8q-2.8-3.3-5.4-6.6zm7.5 9.2q2.8 3.2 5.7 6.5l2-1.8q-2.9-3.2-5.6-6.5zm7.9 9q2.8 3.1 5.9 6.3l1.9-1.8q-3-3.2-5.8-6.3zm8.1 8.6q3 3.1 6.1 6.2l1.9-2q-3.1-3-6.1-6zm8.5 8.4q3.1 2.9 6.3 5.9l1.8-2q-3.2-2.9-6.3-5.9zm8.8 8.1q3.2 2.9 6.5 5.7l1.7-2q-3.3-2.8-6.4-5.7zm8.9 7.8q3.3 2.8 6.7 5.5l1.7-2.1q-3.4-2.7-6.6-5.4zm9.2 7.5q3.4 2.6 6.9 5.2l1.6-2.1q-3.5-2.6-6.8-5.3zm9.5 7.2q3.5 2.6 7 5l1.6-2.2q-3.6-2.4-7-4.9zm9.7 6.8q3.6 2.4 7.2 4.8l1.5-2.3q-3.7-2.3-7.2-4.7zm10 6.5q3.6 2.3 7.4 4.5l1.3-2.3q-3.7-2.2-7.3-4.5zm10.2 6.2q3.7 2.2 7.5 4.3l1.3-2.4q-3.8-2.1-7.4-4.2zm10.3 5.8q3.8 2 7.7 4l1.2-2.4q-3.8-2-7.6-4zm10.6 5.5q3.8 1.9 7.8 3.7l1.1-2.4q-3.9-1.8-7.7-3.7zm10.7 5.1q3.9 1.8 8 3.5l1-2.5q-4-1.7-7.8-3.5zm10.9 4.8q3.9 1.6 8 3.2l1-2.5q-4.1-1.6-8-3.2zm11.1 4.4q4 1.5 8.1 3l0.9-2.6q-4.1-1.4-8.1-2.9zm11.2 4q4.1 1.4 8.2 2.7l0.9-2.5q-4.2-1.4-8.2-2.7zm11.3 3.6q4.1 1.3 8.3 2.5l0.7-2.6q-4.1-1.2-8.2-2.4zm11.4 3.3q4.2 1.1 8.4 2.2l0.6-2.6q-4.2-1.1-8.3-2.2zm11.5 3q4.2 1 8.5 2l0.6-2.7q-4.3-0.9-8.4-1.9zm11.6 2.6q4.2 0.9 8.5 1.7l0.5-2.6q-4.3-0.8-8.5-1.7zm11.7 2.3q4.2 0.8 8.5 1.5l0.5-2.7q-4.3-0.7-8.5-1.5zm11.7 2q4.3 0.7 8.6 1.3l0.3-2.7q-4.3-0.6-8.5-1.2zm11.8 1.6q4.3 0.6 8.6 1l0.3-2.6q-4.3-0.5-8.5-1.1zm11.8 1.4q4.2 0.5 8.6 0.8l0.2-2.7q-4.3-0.3-8.6-0.8zm11.9 1.1q4.3 0.3 8.6 0.6l0.2-2.7q-4.4-0.3-8.6-0.6zm11.9 0.8q4.2 0.2 8.6 0.4l0.1-2.7q-4.3-0.2-8.6-0.4zm11.9 0.5q4.3 0.1 8.6 0.2l0.1-2.7q-4.4-0.1-8.6-0.2zm11.8 0.2q1.9 0 3.7 0 2.5 0 4.9 0h0.1v-2.7h-0.1q-2.4 0-4.9 0-1.8 0-3.6 0zm11.9 0q4.2 0 8.6-0.1l-0.1-2.7q-4.3 0.1-8.6 0.1zm11.9-0.2q4.3-0.2 8.7-0.4l-0.2-2.7q-4.3 0.2-8.6 0.4zm11.9-0.5q4.3-0.2 8.7-0.6l-0.2-2.7q-4.4 0.4-8.6 0.6zm11.8-0.8q4.3-0.3 8.7-0.8l-0.3-2.7q-4.3 0.5-8.6 0.8zm11.9-1.1q4.3-0.4 8.6-1l-0.4-2.7q-4.2 0.6-8.5 1zm11.8-1.4q4.3-0.5 8.6-1.2l-0.4-2.7q-4.3 0.7-8.5 1.3zm11.7-1.8q4.3-0.6 8.6-1.4l-0.5-2.7q-4.3 0.8-8.5 1.5zm11.7-2.1q4.3-0.8 8.5-1.7l-0.5-2.6q-4.3 0.9-8.5 1.7zm11.7-2.4q4.2-0.9 8.4-1.9l-0.6-2.7q-4.2 1-8.4 2zm11.6-2.8q4.2-1 8.4-2.2l-0.7-2.6q-4.2 1.2-8.4 2.2zm11.5-3.1q4.2-1.1 8.3-2.4l-0.7-2.6q-4.2 1.3-8.3 2.5zm11.4-3.5q4.1-1.3 8.2-2.7l-0.9-2.5q-4 1.4-8.1 2.7zm11.3-3.8q4-1.5 8.1-3l-1-2.5q-4 1.5-8 2.9zm11.1-4.1q4-1.6 8.1-3.3l-1.1-2.5q-4 1.7-7.9 3.3zm11-4.5q3.9-1.7 7.9-3.5l-1.1-2.5q-4 1.8-7.9 3.5zm10.9-4.9q3.9-1.8 7.8-3.7l-1.2-2.5q-3.9 2-7.8 3.8zm10.7-5.3q3.9-1.9 7.7-4l-1.3-2.4q-3.8 2.1-7.6 4zm10.5-5.6q3.8-2 7.5-4.2l-1.4-2.4q-3.7 2.2-7.4 4.3zm10.3-6q3.7-2.2 7.4-4.5l-1.5-2.3q-3.6 2.3-7.3 4.5zm10.1-6.3q3.6-2.3 7.2-4.8l-1.5-2.2q-3.6 2.4-7.2 4.7zm9.9-6.6q3.5-2.5 7-5.1l-1.6-2.1q-3.4 2.5-7 5zm9.7-7q3.4-2.6 6.8-5.3l-1.6-2.1q-3.4 2.7-6.8 5.2zm9.3-7.3q3.4-2.7 6.7-5.5l-1.7-2.1q-3.3 2.8-6.6 5.5zm9.1-7.6q3.3-2.8 6.5-5.8l-1.8-2q-3.2 2.9-6.5 5.7zm8.9-7.9q3.2-2.9 6.3-6l-1.9-1.9q-3.1 3-6.2 5.9zm8.6-8.2q3-3 6.1-6.2l-2-1.8q-3 3.1-6 6.1zm8.3-8.5q3-3.1 5.9-6.4l-2-1.8q-2.9 3.2-5.8 6.3zm8-8.7q2.9-3.2 5.7-6.6l-2.1-1.7q-2.8 3.3-5.6 6.5zm7.8-9q2.7-3.3 5.5-6.7l-2.1-1.7q-2.8 3.4-5.5 6.6zm7.5-9.2q2.7-3.4 5.3-6.9l-2.2-1.6q-2.6 3.5-5.2 6.8zm7.2-9.4q2.6-3.5 5.1-7l-2.2-1.6q-2.5 3.5-5.1 7zm7-9.7q0.1-0.2 0.3-0.4 2.4-3.4 4.6-6.7l-2.2-1.5q-2.3 3.2-4.6 6.6-0.2 0.3-0.3 0.5zm6.7-9.8q2.5-3.7 4.7-7.3l-2.2-1.4q-2.3 3.5-4.7 7.2zm6.4-10q2.4-3.8 4.6-7.4l-2.3-1.4q-2.2 3.6-4.5 7.4zm6.1-10.2q2.3-3.9 4.3-7.5l-2.3-1.3q-2 3.6-4.3 7.4zm5.9-10.4q2.2-4 4-7.6l-2.4-1.3q-1.8 3.7-4 7.7zm5.5-10.6q2-4.2 3.7-7.9l-2.5-1.1q-1.6 3.6-3.6 7.8zm4.9-10.9q2-4.5 3.3-8l-2.5-1q-1.3 3.5-3.2 8zm4.4-11.1c1.8-5.1 2.4-7.8 2.4-7.9l-2.6-0.6c-0.1 0.3-0.7 2.9-2.4 7.6z"/><path class="b" d="m1074.6 299.7c0 0 3 0.6 8.6 1.5l0.4-2.7c-2.7-0.4-4.9-0.8-6.3-1.1q-2.1-0.4-2.2-0.4zm11.8 2.1q3.7 0.6 8.5 1.4l0.5-2.7q-4.9-0.7-8.6-1.4zm11.8 1.9q3.9 0.7 8.5 1.3l0.4-2.6q-4.6-0.7-8.5-1.3zm11.7 1.7q4.1 0.6 8.6 1.3l0.4-2.7q-4.5-0.6-8.6-1.2zm11.8 1.6q4.1 0.6 8.6 1.2l0.3-2.7q-4.4-0.6-8.5-1.1zm11.7 1.6q4.2 0.5 8.6 1l0.3-2.6q-4.4-0.6-8.5-1.1zm11.8 1.5q4.2 0.5 8.6 1l0.3-2.7q-4.4-0.5-8.6-1zm11.8 1.4q4.2 0.5 8.6 0.9l0.3-2.6q-4.4-0.5-8.6-1zm11.8 1.3q4.2 0.5 8.6 0.9l0.3-2.7q-4.4-0.4-8.6-0.9zm11.8 1.3q4.3 0.4 8.6 0.8l0.3-2.7q-4.4-0.4-8.6-0.8zm11.8 1.1q4.3 0.4 8.6 0.8l0.3-2.7q-4.4-0.4-8.6-0.8zm11.8 1.1q4.3 0.3 8.6 0.7l0.2-2.7q-4.3-0.3-8.6-0.7zm11.9 1q4.2 0.3 8.6 0.6l0.2-2.7q-4.4-0.3-8.6-0.6zm11.8 0.9q4.3 0.2 8.6 0.5l0.2-2.7q-4.3-0.2-8.6-0.5zm11.9 0.7q4.2 0.3 8.6 0.6l0.1-2.7q-4.3-0.3-8.6-0.5zm11.9 0.7q4.3 0.2 8.6 0.4l0.1-2.7q-4.3-0.2-8.6-0.4zm11.9 0.6q4.3 0.2 8.6 0.4l0.1-2.7q-4.3-0.2-8.6-0.4zm11.9 0.5q4.3 0.2 8.6 0.3l0.1-2.7q-4.3-0.1-8.6-0.3zm11.9 0.4q4.3 0.2 8.6 0.3l0.1-2.7q-4.4-0.1-8.7-0.3zm11.9 0.4q4.3 0.1 8.7 0.1v-2.7q-4.3 0-8.6-0.1zm11.9 0.2q4.3 0.1 8.6 0.1v-2.7q-4.3 0-8.6-0.1zm11.9 0.1q4.1 0.1 8.3 0.1 0.1 0 0.3 0v-2.7q-0.2 0-0.3 0-4.2 0-8.3-0.1zm11.8 0.1q4.3-0.1 8.7-0.1v-2.7q-4.4 0.1-8.7 0.1zm11.9-0.1q4.3-0.1 8.6-0.1v-2.7q-4.3 0-8.6 0.1zm11.8-0.2q4.4-0.1 8.7-0.1l-0.1-2.7q-4.3 0-8.6 0.1zm11.9-0.2q4.3-0.1 8.6-0.2l-0.1-2.7q-4.2 0.1-8.6 0.2zm11.9-0.3q4.3-0.1 8.6-0.2l-0.1-2.7q-4.2 0.1-8.6 0.2zm11.9-0.3q4.3-0.2 8.6-0.3l-0.1-2.7q-4.3 0.1-8.6 0.3zm11.9-0.4q4.3-0.2 8.6-0.4l-0.1-2.7q-4.3 0.2-8.6 0.4zm11.8-0.5q4.4-0.2 8.6-0.4l-0.1-2.7q-4.2 0.2-8.6 0.4zm11.9-0.5q4.3-0.2 8.6-0.5l-0.1-2.7q-4.3 0.3-8.7 0.5zm11.9-0.6q4.4-0.3 8.6-0.5l-0.1-2.7q-4.3 0.3-8.6 0.5zm11.8-0.7q4.4-0.2 8.6-0.5l-0.1-2.7q-4.3 0.3-8.6 0.5zm11.8-0.7q4.4-0.3 8.6-0.6l-0.2-2.7q-4.2 0.3-8.6 0.6zm11.9-0.8q4.3-0.3 8.6-0.7l-0.2-2.7q-4.3 0.4-8.6 0.7zm11.8-0.9q4.4-0.3 8.6-0.7l-0.2-2.7q-4.2 0.4-8.6 0.7zm11.9-1q4.3-0.3 8.6-0.7l-0.3-2.7q-4.2 0.4-8.6 0.7zm11.8-1q4.4-0.4 8.6-0.9l-0.2-2.6q-4.3 0.4-8.6 0.8zm11.8-1.2q4.4-0.4 8.6-0.9l-0.3-2.7q-4.2 0.5-8.6 0.9zm11.9-1.2q4.3-0.5 8.5-1l-0.3-2.7q-4.2 0.5-8.6 1zm11.8-1.4q4.4-0.5 8.6-1.1l-0.3-2.7q-4.2 0.6-8.6 1.1zm11.8-1.5q4.4-0.6 8.6-1.2l-0.4-2.7q-4.1 0.6-8.6 1.2zm11.8-1.7q4.5-0.7 8.5-1.3l-0.4-2.7q-4.1 0.7-8.5 1.4zm11.7-2q4.6-0.8 8.5-1.5l-0.5-2.7q-3.9 0.8-8.4 1.6zm11.7-2.2q4.6-1 8.4-1.9l-0.6-2.7q-3.8 1-8.4 1.9zm11.6-2.7q5.1-1.4 8.4-2.7l-1-2.5c-2 0.8-4.7 1.7-8.1 2.6z"/><path class="b" d="m1084.4 314.8c0 0 3.1 0.4 8.6 1.2l0.4-2.7c-2.8-0.4-4.9-0.7-6.4-0.9q-2.2-0.3-2.2-0.3zm11.8 1.7q3.8 0.5 8.6 1.1l0.4-2.6q-4.9-0.7-8.6-1.2zm11.8 1.6q4 0.5 8.6 1.1l0.3-2.7q-4.6-0.5-8.6-1.1zm11.8 1.6q4.1 0.5 8.6 1l0.3-2.6q-4.4-0.6-8.5-1.1zm11.8 1.5q4.1 0.5 8.5 1l0.4-2.7q-4.5-0.5-8.6-1zm11.8 1.4q4.2 0.5 8.6 1l0.3-2.7q-4.4-0.5-8.6-1zm11.8 1.4q4.2 0.5 8.6 1l0.3-2.7q-4.4-0.5-8.6-1zm11.8 1.4q4.3 0.4 8.6 0.9l0.3-2.7q-4.3-0.5-8.6-0.9zm11.8 1.3q4.3 0.4 8.6 0.9l0.3-2.7q-4.3-0.5-8.6-0.9zm11.8 1.2q4.3 0.4 8.6 0.9l0.3-2.7q-4.3-0.5-8.6-0.9zm11.8 1.2q4.3 0.4 8.6 0.8l0.3-2.7q-4.4-0.4-8.6-0.8zm11.8 1.1q4.3 0.4 8.6 0.8l0.2-2.7q-4.3-0.4-8.5-0.8zm11.8 1.1q4.3 0.4 8.6 0.7l0.2-2.7q-4.3-0.3-8.6-0.7zm11.8 1q4.3 0.3 8.7 0.6l0.2-2.7q-4.3-0.3-8.6-0.6zm11.8 0.9q4.3 0.3 8.6 0.6l0.2-2.7q-4.3-0.3-8.6-0.6zm11.9 0.8q4.3 0.3 8.6 0.6l0.2-2.7q-4.3-0.3-8.6-0.6zm11.8 0.8q4.3 0.2 8.6 0.4l0.2-2.6q-4.3-0.3-8.6-0.5zm11.8 0.6q4.4 0.2 8.7 0.4l0.1-2.7q-4.3-0.1-8.6-0.4zm11.8 0.6q4.4 0.1 8.7 0.3l0.1-2.7q-4.3-0.2-8.6-0.3zm11.8 0.4q4.4 0.1 8.7 0.2v-2.7q-4.2-0.1-8.6-0.2zm11.9 0.2q4.4 0.1 8.6 0.1l0.1-2.7q-4.3 0-8.7 0zm11.9 0.1q0.6 0 1.1 0 3.7 0 7.3-0.1h0.3l-0.1-2.7h-0.2q-3.6 0.1-7.3 0.1-0.5 0-1.1 0zm11.9-0.1q4.3-0.1 8.7-0.1l-0.1-2.7q-4.3 0-8.6 0.1zm11.9-0.2q4.3 0 8.6-0.1v-2.7q-4.3 0.1-8.7 0.1zm11.9-0.2q4.4 0 8.7-0.1l-0.1-2.7q-4.3 0.1-8.6 0.1zm11.9-0.2q4.3-0.1 8.6-0.2l-0.1-2.7q-4.3 0.1-8.6 0.2zm11.9-0.3q4.3-0.1 8.6-0.2l-0.1-2.7q-4.3 0.1-8.6 0.2zm11.9-0.3q4.3-0.2 8.6-0.3l-0.1-2.7q-4.3 0.1-8.6 0.3zm11.9-0.4q4.3-0.2 8.6-0.3l-0.1-2.7q-4.3 0.1-8.6 0.3zm11.8-0.5q4.3-0.1 8.6-0.3l-0.1-2.7q-4.3 0.2-8.6 0.3zm11.9-0.5q4.3-0.2 8.6-0.4l-0.1-2.7q-4.3 0.2-8.7 0.4zm11.9-0.6q4.3-0.2 8.6-0.4l-0.1-2.7q-4.3 0.2-8.6 0.5zm11.8-0.7q4.4-0.3 8.6-0.6l-0.1-2.7q-4.3 0.3-8.7 0.6zm11.9-0.8q4.3-0.3 8.6-0.6l-0.2-2.7q-4.2 0.4-8.6 0.7zm11.9-0.9q4.3-0.3 8.6-0.7l-0.3-2.7q-4.2 0.4-8.5 0.7zm11.8-0.9q4.3-0.4 8.6-0.8l-0.2-2.7q-4.3 0.4-8.6 0.8zm11.8-1.1q4.3-0.4 8.6-0.8l-0.3-2.7q-4.2 0.4-8.6 0.8zm11.9-1.2q4.3-0.4 8.6-0.9l-0.4-2.7q-4.2 0.5-8.5 0.9zm11.8-1.3q4.3-0.5 8.6-1.1l-0.4-2.6q-4.2 0.5-8.5 1zm11.8-1.5q4.3-0.5 8.5-1.2l-0.4-2.6q-4.2 0.6-8.5 1.2zm11.8-1.7q4.3-0.7 8.5-1.4l-0.4-2.7q-4.2 0.7-8.5 1.4zm11.7-1.9q4.3-0.8 8.5-1.6l-0.5-2.6q-4.1 0.8-8.5 1.5zm11.7-2.2q4.4-0.8 8.5-1.7l-0.6-2.7q-4.1 0.9-8.4 1.8zm11.6-2.5q4.4-1 8.5-2.1l-0.7-2.6q-4.1 1.1-8.4 2.1z"/><path class="a" d="m4011.5 260.4c0 0-362.3 71.7-686.8-15.3-103.4 65.5-156.6 85-288.7 135.1-132.1 50.2-226.2 138.2-286.6 305.1-60.4 166.8-145.4 335.7-208.9 417.6 68.6 98.3 232.4 187.3 380.9 194.5 104.4-148.4 113.6-169.9 113.6-169.9 0 0 11.2 498.5-13.3 1010.3-24.6 511.9-22.6 554.9-22.6 554.9 0 0 32.8 81.9 616.3 85.9 515.9-8.1 603.9-34.7 698.1-94.1-16.4-348.1-61.4-1242.8-43-1537.6 16.4 32.8 114.7 155.6 114.7 155.6 0 0 249.7-16.3 386.9-194.5-73.7-106.4-178.1-321.4-219-444.2-41-122.9-155.6-245.7-333.8-309.2-149.4-53.2-207.8-94.2-207.8-94.2z"/><path class="b" d="m4011.5 260.4l-0.6-3q0 0-0.4 0.1c-8.2 1.6-145.3 27.6-323.4 27.6-111.7 0-239.4-10.2-361.6-43l-1.4-0.4-1.1 0.8c-51.6 32.7-90.6 53.8-133.2 73.1-42.6 19.2-88.9 36.6-154.9 61.7-66.4 25.2-123.4 60-171.3 109.5-48 49.5-86.8 113.7-117.2 197.4-30.1 83.3-66.4 167.2-103.1 240.4-36.6 73.2-73.7 135.8-105.2 176.4l-1.4 1.8 1.3 1.9c34.7 49.7 93.1 96.8 161.6 132.4 68.4 35.6 146.8 59.8 221.6 63.4l1.7 0.1 1-1.4c52.2-74.2 80.6-116.7 96-140.7 7.7-12 12.2-19.4 14.7-23.8 2.5-4.4 3.2-5.8 3.2-6l-2.8-1.2-3.1 0.1c0 0 0 1.7 0.1 5.2 0.5 24.2 2.4 130.6 2.4 283.7 0 190.9-3 454.2-15.8 721.2-21.1 438.7-22.6 533-22.6 551.1 0 3 0 3.9 0 4l0.1 0.5 0.2 0.5c0.3 0.8 2.8 6.4 15.4 14.4 18.9 11.9 60.3 29.5 151.8 44.5 91.4 15 232.9 27.5 451.9 29.1 258-4.1 409.1-12.8 507.7-28 49.3-7.5 85.4-16.7 115.2-27.8 29.8-11.1 53.3-24 76.9-38.9l1.5-1-0.1-1.8c-13.6-290.6-47.3-962.5-47.3-1347.7 0-76.1 1.3-141 4.3-189.5l-3.1-0.2-2.8 1.4c2.2 4.3 5.6 9.9 9.9 16.4 7.5 11.5 17.8 25.9 29 41.2 33.8 45.7 76.1 98.6 76.1 98.6l1.1 1.2 1.6-0.1c0.2 0 62.8-4.1 142.8-30.6 40-13.2 84.3-32 127.2-58.8 43-26.7 84.6-61.4 119.2-106.3l1.4-1.8-1.3-1.8c-36.7-53-81.2-133.3-121.6-215.6-40.4-82.3-76.7-166.7-97.1-227.9-41.3-123.9-156.7-247.4-335.6-311.1-74.6-26.6-126.5-50.1-159.6-66.9-16.6-8.4-28.5-15.2-36.2-19.8-3.9-2.3-6.7-4.1-8.6-5.3q-1.4-0.9-2-1.4-0.4-0.2-0.5-0.3l-0.1-0.1h-0.1l-1.1-0.8-1.3 0.3 0.6 3-1.7 2.6c0.2 0.2 58.8 41.3 208.5 94.6 177.3 63.1 291.2 185.4 331.8 307.2 20.5 61.6 56.9 146.1 97.4 228.6 40.5 82.5 85.1 163 122.1 216.4l2.5-1.8-2.5-1.9c-34 44.2-75 78.4-117.5 104.8-63.6 39.7-130.5 61.8-181.4 74-25.4 6.1-46.9 9.8-62 11.9-7.5 1-13.5 1.7-17.5 2.1-2.1 0.2-3.6 0.3-4.7 0.4q-0.7 0.1-1.1 0.1-0.4 0-0.4 0l0.2 3.1 2.4-1.9c0 0-0.4-0.5-1.1-1.4-5.4-6.8-29.9-37.6-55-70.6-12.6-16.5-25.2-33.5-35.7-48.3-5.3-7.4-10-14.2-13.8-20.2-3.9-5.9-6.9-10.9-8.7-14.5l-5.2-10.4-0.7 11.6c-3 48.7-4.3 113.6-4.3 189.8 0 385.5 33.6 1057.4 47.3 1348l3.1-0.1-1.6-2.7c-23.5 14.8-46.4 27.5-75.7 38.4-44 16.3-102.4 28.6-198.3 37.6-95.9 9-229.1 14.7-422.6 17.7l0.1 3.1v-3.1c-291.6-2-445.5-23.5-526.2-44.4-40.3-10.4-62.4-20.7-74.1-28.2-6-3.8-9.3-6.8-11.1-8.8-0.9-1-1.4-1.7-1.7-2.2q-0.2-0.3-0.3-0.4v-0.1l-1 0.5 1-0.5-1 0.5 1-0.5-1.9 0.9 1.9-0.8v-0.1l-1.9 0.9 1.9-0.8-2.8 1.1 2.8-1.1-2.8 1.1 2.8-1.1-2.9 1.2 3.2-0.2-1 0.1 1-0.1-1 0.1 1-0.1c0 0-0.1-0.9-0.1-3.7 0-17.9 1.5-112.1 22.6-550.8 12.8-267.1 15.9-530.6 15.9-721.5 0-175-2.6-289.1-2.6-289.1l-0.3-14.3-5.7 13.2c-0.1 0.2-0.9 1.9-3.6 6.6-8.3 14.1-33.9 54.9-109.7 162.7l2.6 1.8 0.1-3.1c-73.6-3.5-151.3-27.5-219.1-62.7-67.7-35.3-125.4-81.9-159.3-130.5l-2.6 1.8 2.5 1.9c31.9-41.2 69.1-104 105.9-177.4 36.8-73.5 73.2-157.5 103.4-241.1 30.1-83.1 68.5-146.4 115.8-195.2 47.2-48.7 103.3-83 169-108 66-25 112.4-42.5 155.3-61.8 42.8-19.4 82.2-40.8 133.9-73.6l-1.6-2.6-0.8 3c122.9 33 251.2 43.2 363.2 43.2 184.5 0 324.9-27.8 325-27.8l-0.6-3.1-1.7 2.6z"/><path class="b" d="m2998.1 2643.8c0.1 0.2 1.2 2.8 5.9 6.9l1.4-1.6c-2.2-2-3.6-3.6-4.3-4.6q-0.6-0.8-0.8-1.2-0.1-0.1-0.1-0.2l-0.1-0.1-0.6 0.3 0.6-0.3-0.6 0.3 0.6-0.3zm9.3 9.6c1.9 1.5 4.3 3.1 7.2 4.9l1.1-1.9c-2.8-1.7-5.1-3.3-7-4.7zm10.9 7q3.4 2 7.7 4l0.9-1.9q-4.2-2.1-7.5-3.9zm11.6 5.8q3.6 1.7 7.9 3.4l0.8-2q-4.2-1.7-7.9-3.4zm12 5q3.8 1.5 8.1 3.1l0.7-2.1q-4.2-1.5-8-3zm12.1 4.5q4 1.3 8.2 2.7l0.7-2.1q-4.3-1.3-8.2-2.7zm12.4 4q3.9 1.3 8.2 2.5l0.6-2.1q-4.2-1.2-8.2-2.4zm12.4 3.6q4.1 1.1 8.4 2.3l0.5-2.1q-4.3-1.2-8.3-2.3zm12.5 3.4q4.1 1 8.4 2l0.5-2.1q-4.3-1-8.3-2zm12.5 3q4.1 1 8.5 1.9l0.4-2.1q-4.3-0.9-8.4-1.9zm12.7 2.8q4.1 0.9 8.4 1.8l0.4-2.1q-4.3-0.9-8.4-1.8zm12.7 2.6q4.1 0.9 8.5 1.7l0.4-2.1q-4.4-0.9-8.5-1.7zm12.7 2.5q4.2 0.7 8.5 1.5l0.4-2.1q-4.3-0.8-8.5-1.5zm12.8 2.2q4.1 0.7 8.5 1.5l0.3-2.2q-4.3-0.7-8.5-1.4zm12.8 2.1q4.2 0.7 8.5 1.4l0.3-2.2q-4.3-0.6-8.5-1.3zm12.8 2q4.2 0.6 8.5 1.3l0.4-2.2q-4.4-0.6-8.6-1.2zm12.8 1.8q4.2 0.6 8.6 1.2l0.3-2.1q-4.4-0.6-8.6-1.2zm12.9 1.8q4.2 0.5 8.5 1.1l0.3-2.2q-4.3-0.5-8.5-1.1zm12.8 1.7q4.2 0.5 8.6 1l0.2-2.1q-4.3-0.5-8.5-1.1zm12.8 1.5q4.3 0.5 8.6 1l0.2-2.1q-4.3-0.5-8.5-1zm12.8 1.5q4.3 0.4 8.6 0.9l0.2-2.1q-4.3-0.5-8.5-1zm12.8 1.4q4.3 0.5 8.6 0.9l0.2-2.2q-4.3-0.4-8.5-0.8zm12.9 1.3q4.2 0.4 8.5 0.8l0.2-2.1q-4.3-0.5-8.5-0.9zm12.9 1.2q4.2 0.4 8.5 0.8l0.2-2.1q-4.3-0.4-8.6-0.8zm12.9 1.1q4.3 0.4 8.6 0.8l0.2-2.2q-4.3-0.3-8.6-0.7zm12.9 1.1q4.3 0.3 8.6 0.7l0.2-2.2q-4.4-0.3-8.6-0.7zm12.9 1.1q4.3 0.3 8.6 0.6l0.2-2.1q-4.4-0.4-8.6-0.7zm12.9 0.9q4.3 0.3 8.6 0.6l0.2-2.1q-4.4-0.3-8.6-0.6zm12.9 0.9q4.2 0.3 8.6 0.6l0.1-2.2q-4.3-0.3-8.6-0.6zm12.9 0.9q4.3 0.3 8.6 0.5l0.2-2.1q-4.4-0.3-8.6-0.6zm12.9 0.8q4.2 0.3 8.6 0.5l0.1-2.1q-4.3-0.3-8.6-0.5zm12.9 0.7q4.3 0.3 8.6 0.5l0.1-2.1q-4.3-0.3-8.6-0.5zm13 0.7q4.3 0.2 8.6 0.4l0.1-2.1q-4.3-0.3-8.6-0.5zm12.9 0.7q4.3 0.2 8.6 0.4l0.1-2.2q-4.3-0.2-8.6-0.4zm12.9 0.6q4.3 0.2 8.7 0.4l0.1-2.1q-4.4-0.2-8.7-0.4zm13 0.5q4.3 0.2 8.6 0.4l0.1-2.2q-4.3-0.1-8.6-0.3zm12.9 0.5q4.3 0.2 8.6 0.3l0.1-2.1q-4.3-0.2-8.6-0.3zm12.9 0.4q4.3 0.2 8.6 0.3l0.1-2.1q-4.3-0.2-8.6-0.3zm12.9 0.4q4.3 0.2 8.7 0.3v-2.2q-4.3-0.1-8.6-0.2zm12.9 0.4q4.3 0.1 8.7 0.2v-2.1q-4.3-0.1-8.6-0.3zm13 0.4q4.2 0.1 8.6 0.2v-2.1q-4.3-0.1-8.6-0.3zm12.9 0.4q4.3 0.1 8.7 0.2v-2.2q-4.3-0.1-8.6-0.2zm12.9 0.3q4.3 0.1 8.7 0.2v-2.1q-4.3-0.1-8.6-0.2zm12.9 0.2q4.3 0.1 8.6 0.2l0.1-2.1q-4.4-0.1-8.6-0.2zm12.9 0.2q4.3 0.1 8.6 0.2l0.1-2.2q-4.4 0-8.7-0.1zm13 0.2q4.3 0.1 8.6 0.1v-2.1q-4.3-0.1-8.6-0.2zm12.9 0.2q4.3 0.1 8.7 0.1v-2.1q-4.3-0.1-8.6-0.1zm12.9 0.1q4.3 0.1 8.6 0.1l0.1-2.1q-4.4-0.1-8.7-0.1zm13 0.1q4.3 0 8.6 0.1v-2.2q-4.3 0-8.6-0.1zm12.9 0q4.4 0 8.7-0.1l-0.1-2.2q-4.3 0.1-8.6 0.2zm13-0.2q4.3-0.1 8.6-0.2l-0.1-2.1q-4.3 0.1-8.6 0.1zm12.9-0.2q4.4-0.1 8.7-0.2l-0.1-2.1q-4.3 0.1-8.6 0.1zm13-0.2q4.3-0.1 8.6-0.2l-0.1-2.1q-4.3 0.1-8.6 0.2zm12.9-0.3q4.4-0.1 8.7-0.2l-0.1-2.1q-4.3 0.1-8.6 0.1zm12.9-0.2q4.4-0.1 8.7-0.2l-0.1-2.2q-4.3 0.1-8.6 0.2zm12.9-0.3q4.4-0.1 8.7-0.1l-0.1-2.2q-4.3 0.1-8.6 0.2zm12.9-0.3q4.4-0.1 8.6-0.2v-2.2q-4.3 0.1-8.6 0.2zm12.9-0.3q4.3-0.1 8.6-0.2v-2.1q-4.3 0.1-8.6 0.2zm12.9-0.3q4.3-0.2 8.6-0.3v-2.1q-4.3 0.1-8.7 0.2zm13-0.3q4.3-0.2 8.6-0.3l-0.1-2.1q-4.3 0.1-8.6 0.2zm13-0.4q4.3-0.1 8.6-0.2l-0.1-2.2q-4.3 0.2-8.6 0.3zm12.9-0.4q4.4-0.1 8.7-0.2l-0.1-2.2q-4.3 0.1-8.6 0.2zm12.9-0.3q4.3-0.2 8.6-0.3v-2.2q-4.3 0.2-8.7 0.3zm13-0.4q4.3-0.1 8.6-0.3l-0.1-2.1q-4.3 0.1-8.6 0.3zm12.9-0.5q4.4-0.1 8.7-0.3l-0.1-2.1q-4.3 0.1-8.6 0.3zm12.9-0.5q4.3-0.1 8.6-0.3l-0.1-2.2q-4.3 0.2-8.6 0.4zm12.9-0.5q4.4-0.2 8.7-0.4l-0.1-2.1q-4.3 0.2-8.6 0.3zm12.9-0.5q4.3-0.2 8.6-0.3l-0.1-2.2q-4.3 0.2-8.6 0.4zm12.9-0.6q4.4-0.2 8.6-0.3v-2.2q-4.3 0.2-8.7 0.4zm13-0.6q4.3-0.2 8.6-0.4l-0.1-2.1q-4.3 0.2-8.6 0.4zm12.9-0.6q4.3-0.2 8.6-0.5l-0.1-2.1q-4.3 0.2-8.6 0.4zm12.9-0.6q4.4-0.2 8.6-0.5l-0.1-2.1q-4.3 0.2-8.6 0.4zm12.9-0.6q4.4-0.3 8.6-0.5l-0.1-2.2q-4.2 0.3-8.6 0.5zm12.9-0.7q4.4-0.2 8.6-0.5l-0.1-2.1q-4.3 0.2-8.6 0.5zm12.9-0.8q4.4-0.3 8.6-0.5l-0.1-2.2q-4.3 0.3-8.6 0.6zm12.9-0.8q4.4-0.3 8.6-0.6l-0.1-2.1q-4.3 0.2-8.6 0.5zm12.9-0.8q4.3-0.3 8.6-0.6l-0.1-2.2q-4.3 0.3-8.6 0.6zm12.9-0.9q4.3-0.3 8.6-0.6l-0.2-2.1q-4.2 0.3-8.6 0.6zm12.9-0.9q4.4-0.4 8.6-0.7l-0.1-2.1q-4.3 0.3-8.6 0.6zm12.9-1q4.3-0.3 8.6-0.7l-0.2-2.1q-4.3 0.3-8.6 0.6zm12.9-1q4.3-0.4 8.6-0.8l-0.2-2.1q-4.3 0.4-8.6 0.7zm12.9-1.1q4.3-0.4 8.6-0.8l-0.2-2.2q-4.3 0.5-8.6 0.8zm12.9-1.2q4.3-0.4 8.6-0.8l-0.3-2.2q-4.2 0.5-8.5 0.9zm12.8-1.3q4.4-0.5 8.6-0.9l-0.2-2.2q-4.3 0.5-8.6 0.9zm12.9-1.4q4.3-0.5 8.5-1l-0.2-2.1q-4.2 0.5-8.6 1zm12.9-1.5q4.3-0.5 8.5-1.1l-0.2-2.1q-4.2 0.5-8.6 1.1zm12.9-1.7q4.3-0.5 8.5-1.1l-0.3-2.1q-4.2 0.5-8.5 1.1zm12.8-1.7q4.3-0.7 8.6-1.3l-0.4-2.1q-4.2 0.6-8.5 1.2zm12.8-1.9q4.3-0.6 8.5-1.3l-0.3-2.1q-4.2 0.6-8.5 1.3zm12.8-2q4.3-0.8 8.5-1.5l-0.4-2.1q-4.2 0.7-8.5 1.4zm12.8-2.2q4.3-0.8 8.4-1.6l-0.4-2.1q-4.1 0.8-8.4 1.6zm12.7-2.5q4.3-0.8 8.4-1.7l-0.4-2.1q-4.1 0.9-8.4 1.7zm12.6-2.6q4.3-1 8.5-1.9l-0.5-2.1q-4.2 0.9-8.4 1.9zm12.6-2.9q4.3-1.1 8.4-2.1l-0.6-2.1q-4.1 1-8.3 2.1zm12.5-3.2q4.3-1.2 8.4-2.3l-0.6-2.1q-4.1 1.2-8.3 2.3zm12.4-3.5q4.2-1.3 8.3-2.6l-0.7-2q-4 1.3-8.2 2.5zm12.4-3.9q4.2-1.3 8.2-2.7l-0.8-2.1q-3.9 1.4-8.1 2.8zm12.2-4.3q4.2-1.5 8.1-3l-0.8-2q-3.9 1.5-8 3zm12.1-4.6q4.1-1.7 8-3.4l-0.9-2q-3.9 1.7-7.9 3.4zm11.9-5.1q4-1.8 7.8-3.7l-0.9-1.9q-3.8 1.8-7.8 3.6zm11.7-5.5q3.9-1.9 7.7-3.9l-1-1.9q-3.7 1.9-7.6 3.9zm11.5-6q3.8-2 7.6-4.1l-1.1-1.9q-3.7 2.1-7.5 4.1zm11.3-6.3q3.8-2.1 7.4-4.3l-1.1-1.9q-3.6 2.2-7.4 4.4zm11.1-6.6q3.7-2.2 7.4-4.5l-1.2-1.8q-3.6 2.3-7.3 4.5z"/><path class="b" d="m2998.1 2634.5c0.1 0.1 1.2 2.7 5.9 6.8l1.4-1.6c-2.2-2-3.6-3.5-4.3-4.6q-0.6-0.7-0.8-1.1-0.1-0.2-0.1-0.3h-0.1l-0.6 0.2 0.6-0.2-0.6 0.2 0.6-0.2zm9.3 9.6q2.9 2.2 7.2 4.8l1.1-1.8c-2.8-1.7-5.1-3.3-7-4.7zm10.9 7q3.4 1.9 7.7 4l0.9-2q-4.2-2-7.5-3.9zm11.6 5.8q3.6 1.7 7.9 3.5l0.8-2q-4.2-1.8-7.9-3.4zm12 5q3.8 1.5 8.1 3l0.7-2q-4.2-1.5-8-3zm12.1 4.5q4 1.3 8.2 2.7l0.7-2.1q-4.3-1.3-8.2-2.7zm12.4 4q3.9 1.3 8.2 2.5l0.6-2.1q-4.2-1.2-8.2-2.4zm12.4 3.6q4.1 1.1 8.4 2.2l0.5-2.1q-4.3-1.1-8.3-2.2zm12.5 3.3q4.1 1.1 8.4 2.1l0.5-2.1q-4.3-1-8.3-2.1zm12.5 3.1q4.1 0.9 8.5 1.9l0.4-2.1q-4.3-1-8.4-1.9zm12.7 2.8q4.1 0.9 8.4 1.8l0.4-2.1q-4.3-0.9-8.4-1.8zm12.7 2.6q4.1 0.8 8.5 1.7l0.4-2.2q-4.4-0.8-8.5-1.6zm12.7 2.4q4.2 0.8 8.5 1.6l0.4-2.2q-4.3-0.7-8.5-1.5zm12.8 2.3q4.1 0.7 8.5 1.4l0.3-2.1q-4.3-0.7-8.5-1.4zm12.8 2.1q4.2 0.7 8.5 1.4l0.3-2.2q-4.3-0.7-8.5-1.3zm12.8 2q4.2 0.6 8.5 1.2l0.4-2.1q-4.4-0.6-8.6-1.3zm12.8 1.9q4.2 0.6 8.6 1.2l0.3-2.1q-4.4-0.6-8.6-1.2zm12.9 1.7q4.2 0.6 8.5 1.2l0.3-2.2q-4.3-0.5-8.5-1.1zm12.8 1.7q4.2 0.5 8.6 1l0.2-2.1q-4.3-0.6-8.5-1.1zm12.8 1.5q4.3 0.5 8.6 1l0.2-2.1q-4.3-0.5-8.5-1zm12.8 1.4q4.3 0.5 8.6 1l0.2-2.2q-4.3-0.4-8.5-0.9zm12.8 1.4q4.3 0.4 8.6 0.9l0.2-2.2q-4.3-0.4-8.5-0.9zm12.9 1.3q4.2 0.5 8.5 0.9l0.2-2.2q-4.3-0.4-8.5-0.8zm12.9 1.2q4.2 0.4 8.5 0.8l0.2-2.2q-4.3-0.3-8.6-0.7zm12.9 1.1q4.3 0.4 8.6 0.8l0.2-2.2q-4.3-0.3-8.6-0.7zm12.9 1.1q4.3 0.3 8.6 0.7l0.2-2.2q-4.4-0.3-8.6-0.7zm12.9 1q4.3 0.4 8.6 0.7l0.2-2.2q-4.4-0.3-8.6-0.6zm12.9 1q4.3 0.3 8.6 0.6l0.2-2.1q-4.4-0.3-8.6-0.6zm12.9 0.9q4.2 0.3 8.6 0.5l0.1-2.1q-4.3-0.3-8.6-0.6zm12.9 0.9q4.3 0.2 8.6 0.5l0.2-2.1q-4.4-0.3-8.6-0.6zm12.9 0.8q4.2 0.3 8.6 0.5l0.1-2.1q-4.3-0.3-8.6-0.5zm12.9 0.7q4.3 0.3 8.6 0.5l0.1-2.2q-4.3-0.2-8.6-0.4zm13 0.7q4.3 0.2 8.6 0.4l0.1-2.1q-4.3-0.3-8.6-0.5zm12.9 0.7q4.3 0.2 8.6 0.4l0.1-2.2q-4.3-0.2-8.6-0.4zm12.9 0.6q4.3 0.2 8.7 0.4l0.1-2.2q-4.4-0.1-8.7-0.3zm13 0.5q4.3 0.2 8.6 0.4l0.1-2.2q-4.3-0.1-8.6-0.3zm12.9 0.5q4.3 0.2 8.6 0.3l0.1-2.1q-4.3-0.2-8.6-0.3zm12.9 0.4q4.3 0.2 8.6 0.3l0.1-2.1q-4.3-0.2-8.6-0.3zm12.9 0.4q4.3 0.2 8.7 0.3v-2.1q-4.3-0.2-8.6-0.3zm12.9 0.4q4.3 0.1 8.7 0.2v-2.1q-4.3-0.1-8.6-0.3zm13 0.4q4.2 0.1 8.6 0.2v-2.1q-4.3-0.1-8.6-0.3zm12.9 0.4q4.3 0.1 8.7 0.2v-2.2q-4.3-0.1-8.6-0.2zm12.9 0.3q4.3 0.1 8.7 0.2v-2.1q-4.3-0.1-8.6-0.2zm12.9 0.3q4.3 0 8.6 0.1l0.1-2.1q-4.4-0.1-8.6-0.2zm12.9 0.2q4.3 0.1 8.6 0.2l0.1-2.2q-4.4 0-8.7-0.1zm13 0.2q4.3 0 8.6 0.1v-2.2q-4.3 0-8.6-0.1zm12.9 0.2q4.3 0.1 8.7 0.1v-2.1q-4.3-0.1-8.6-0.2zm12.9 0.2q4.3 0 8.6 0.1l0.1-2.2q-4.4 0-8.7-0.1zm13 0.2q4.3 0 8.6 0v-2.1q-4.3-0.1-8.6-0.1zm12.9 0q4.4 0 8.7-0.1l-0.1-2.2q-4.3 0.1-8.6 0.2zm13-0.3q4.3 0 8.6-0.1l-0.1-2.2q-4.3 0.1-8.6 0.2zm12.9-0.2q4.4-0.1 8.7-0.2l-0.1-2.1q-4.3 0-8.6 0.1zm13-0.2q4.3-0.1 8.6-0.2l-0.1-2.1q-4.3 0-8.6 0.1zm12.9-0.2q4.4-0.1 8.7-0.2l-0.1-2.2q-4.3 0.1-8.6 0.2zm12.9-0.3q4.4 0 8.7-0.1l-0.1-2.2q-4.3 0.1-8.6 0.2zm12.9-0.3q4.4-0.1 8.7-0.2l-0.1-2.1q-4.3 0.1-8.6 0.2zm12.9-0.3q4.4-0.1 8.6-0.2v-2.2q-4.3 0.1-8.6 0.2zm12.9-0.3q4.3-0.1 8.6-0.2v-2.2q-4.3 0.2-8.6 0.3zm12.9-0.4q4.3-0.1 8.6-0.2v-2.1q-4.3 0.1-8.7 0.2zm13-0.4q4.3-0.1 8.6-0.2l-0.1-2.2q-4.3 0.2-8.6 0.3zm13-0.4q4.3-0.1 8.6-0.2l-0.1-2.2q-4.3 0.2-8.6 0.3zm12.9-0.4q4.4-0.1 8.7-0.2l-0.1-2.2q-4.3 0.1-8.6 0.3zm12.9-0.4q4.3-0.2 8.6-0.3v-2.2q-4.3 0.2-8.7 0.3zm13-0.4q4.3-0.2 8.6-0.3l-0.1-2.2q-4.3 0.2-8.6 0.3zm12.9-0.4q4.4-0.1 8.7-0.3l-0.1-2.2q-4.3 0.2-8.6 0.4zm12.9-0.5q4.3-0.2 8.6-0.3l-0.1-2.2q-4.3 0.2-8.6 0.3zm12.9-0.4q4.4-0.2 8.7-0.4l-0.1-2.1q-4.3 0.1-8.6 0.3zm12.9-0.5q4.3-0.2 8.6-0.4l-0.1-2.1q-4.3 0.2-8.6 0.3zm12.9-0.5q4.4-0.2 8.6-0.4v-2.1q-4.3 0.2-8.7 0.3zm13-0.5q4.3-0.2 8.6-0.4l-0.1-2.2q-4.3 0.2-8.6 0.4zm12.9-0.6q4.3-0.2 8.6-0.4l-0.1-2.1q-4.3 0.2-8.6 0.4zm12.9-0.6q4.4-0.3 8.6-0.5l-0.1-2.1q-4.3 0.2-8.6 0.4zm12.9-0.7q4.4-0.2 8.6-0.4l-0.1-2.2q-4.2 0.3-8.6 0.5zm12.9-0.7q4.4-0.2 8.6-0.5l-0.1-2.1q-4.3 0.2-8.6 0.4zm12.9-0.7q4.4-0.3 8.6-0.5l-0.1-2.2q-4.3 0.3-8.6 0.6zm12.9-0.8q4.4-0.3 8.6-0.6l-0.1-2.1q-4.3 0.2-8.6 0.5zm12.9-0.8q4.3-0.3 8.6-0.6l-0.1-2.1q-4.3 0.2-8.6 0.5zm12.9-0.8q4.3-0.4 8.6-0.7l-0.2-2.1q-4.2 0.3-8.6 0.6zm12.9-0.9q4.4-0.4 8.6-0.7l-0.1-2.1q-4.3 0.3-8.6 0.6zm12.9-1q4.3-0.3 8.6-0.7l-0.2-2.1q-4.3 0.3-8.6 0.7zm12.9-1.1q4.3-0.4 8.6-0.8l-0.2-2.1q-4.3 0.4-8.6 0.7zm12.9-1.1q4.3-0.4 8.6-0.8l-0.2-2.1q-4.3 0.4-8.6 0.8zm12.9-1.3q4.3-0.4 8.6-0.8l-0.3-2.2q-4.2 0.5-8.5 0.9zm12.8-1.3q4.4-0.5 8.6-0.9l-0.2-2.2q-4.3 0.5-8.6 0.9zm12.9-1.4q4.3-0.4 8.5-0.9l-0.2-2.2q-4.2 0.5-8.6 1zm12.9-1.5q4.3-0.5 8.5-1.1l-0.2-2.1q-4.2 0.5-8.6 1.1zm12.9-1.6q4.3-0.6 8.5-1.2l-0.3-2.1q-4.2 0.5-8.5 1.1zm12.8-1.7q4.3-0.7 8.6-1.3l-0.4-2.1q-4.2 0.6-8.5 1.2zm12.8-1.9q4.3-0.6 8.5-1.3l-0.3-2.1q-4.2 0.6-8.5 1.3zm12.8-2q4.3-0.8 8.5-1.5l-0.4-2.1q-4.2 0.7-8.5 1.4zm12.8-2.2q4.3-0.8 8.4-1.6l-0.4-2.1q-4.1 0.8-8.4 1.6zm12.7-2.4q4.3-0.9 8.4-1.8l-0.4-2.1q-4.1 0.9-8.4 1.7zm12.6-2.6q4.3-1 8.5-1.9l-0.5-2.1q-4.2 0.9-8.4 1.9zm12.6-2.9q4.3-1.1 8.4-2.1l-0.6-2.1q-4.1 1-8.3 2.1zm12.5-3.2q4.3-1.2 8.4-2.3l-0.6-2.1q-4.1 1.1-8.3 2.3zm12.4-3.5q4.2-1.3 8.3-2.6l-0.7-2q-4 1.2-8.2 2.5zm12.4-3.9q4.2-1.3 8.2-2.8l-0.8-2q-3.9 1.4-8.1 2.8zm12.2-4.3q4.2-1.5 8.1-3l-0.8-2q-3.9 1.5-8 3zm12.1-4.7q4.1-1.6 8-3.3l-0.9-2q-3.9 1.7-7.9 3.3zm11.9-5q4-1.8 7.8-3.7l-0.9-1.9q-3.8 1.8-7.8 3.6zm11.7-5.5q3.9-1.9 7.7-3.9l-1-1.9q-3.7 1.9-7.6 3.8zm11.5-5.9q3.8-2 7.6-4.1l-1.1-1.9q-3.7 2.1-7.5 4.1zm11.3-6.3q3.8-2.1 7.4-4.3l-1.1-1.9q-3.6 2.2-7.4 4.3zm11.2-6.5q3.6-2.3 7.3-4.6l-1.2-1.8q-3.6 2.3-7.3 4.5z"/><path class="b" d="m4742.3 1063.7q0 0-0.4 0.4c-0.6 1-2.2 3.2-4.7 6.6l1.7 1.3c3.4-4.5 5.1-7.1 5.2-7.1zm-7.7 10.4q-2.4 3-5.5 6.7l1.7 1.4q3.1-3.8 5.5-6.8zm-8.2 10q-2.6 3.1-5.7 6.5l1.6 1.5q3.1-3.5 5.7-6.6zm-8.5 9.7q-2.8 3.1-5.9 6.3l1.6 1.5q3.1-3.3 5.9-6.3zm-8.9 9.4q-2.9 3-6 6.1l1.5 1.5q3.1-3.1 6.1-6.1zm-9.2 9.1q-3 2.9-6.2 6l1.5 1.5q3.2-3 6.2-5.9zm-9.4 8.8q-3.1 2.9-6.4 5.8l1.5 1.6q3.3-2.9 6.4-5.8zm-9.6 8.6q-3.2 2.8-6.6 5.6l1.4 1.7q3.4-2.9 6.6-5.6zm-9.9 8.3q-3.2 2.7-6.7 5.4l1.4 1.7q3.4-2.7 6.7-5.4zm-10.1 8q-3.3 2.7-6.8 5.3l1.3 1.7q3.5-2.6 6.8-5.3zm-10.2 7.9q-3.5 2.5-7 5l1.2 1.8q3.6-2.6 7-5.1zm-10.5 7.5q-3.4 2.5-7.1 4.9l1.3 1.8q3.6-2.5 7.1-4.9zm-10.7 7.2q-3.5 2.4-7.2 4.7l1.1 1.9q3.7-2.4 7.3-4.8zm-10.9 7q-3.6 2.3-7.3 4.5l1.1 1.9q3.7-2.3 7.4-4.5zm-11.1 6.7q-3.7 2.1-7.4 4.3l1 1.8q3.8-2.1 7.5-4.3zm-11.2 6.4q-3.7 2.1-7.6 4.1l1.1 1.9q3.8-2 7.6-4.1zm-11.4 6.1q-3.8 2-7.7 3.9l1 2q3.9-2 7.7-4zm-11.5 5.9q-3.9 1.8-7.8 3.7l0.9 1.9q4-1.8 7.8-3.7zm-11.7 5.5q-3.8 1.8-7.8 3.5l0.8 2q4-1.7 7.9-3.5zm-11.8 5.2q-3.9 1.7-7.9 3.3l0.8 2q4-1.6 8-3.3zm-11.9 4.9q-4 1.6-8.1 3.2l0.8 2q4.1-1.6 8.1-3.2zm-12.1 4.7q-4 1.5-8.1 2.9l0.7 2q4.1-1.4 8.2-2.9zm-12.2 4.3q-4.1 1.4-8.2 2.7l0.7 2.1q4.1-1.3 8.2-2.7zm-12.3 4q-4.1 1.3-8.2 2.5l0.6 2.1q4.2-1.3 8.3-2.5zm-12.4 3.7q-4.1 1.2-8.3 2.3l0.6 2.1q4.2-1.2 8.3-2.3zm-12.5 3.4q-4.1 1.1-8.3 2.1l0.5 2.1q4.2-1 8.4-2.1zm-12.5 3.1q-4.2 1-8.4 1.9l0.4 2.1q4.3-0.9 8.5-1.9zm-12.6 2.8q-4.2 0.9-8.5 1.7l0.4 2.1q4.3-0.8 8.5-1.7zm-12.7 2.5q-4.2 0.8-8.5 1.6l0.4 2.1q4.3-0.8 8.5-1.5zm-12.7 2.2q-4.2 0.7-8.5 1.3l0.3 2.1q4.3-0.6 8.5-1.3zm-12.7 2q-4.3 0.5-8.6 1.1l0.3 2.1q4.3-0.5 8.6-1.1zm-12.8 1.6q-4.3 0.5-8.6 1l0.2 2.1q4.3-0.4 8.6-0.9zm-12.8 1.3q-4.3 0.4-8.6 0.8l0.2 2.1q4.3-0.3 8.6-0.7zm-12.9 1.1q-4.3 0.3-8.6 0.5l0.1 2.2q4.4-0.3 8.6-0.6zm-12.9 0.8q-4.2 0.2-8.6 0.4l0.1 2.1q4.4-0.1 8.7-0.3zm-13 0.5q-0.5 0-1 0v2.2q0.6 0 1.1-0.1z"/><path class="b" d="m4736.5 1055.5q0 0-0.3 0.4c-0.7 1-2.2 3.2-4.8 6.6l1.7 1.3c3.5-4.5 5.2-7.1 5.2-7.1zm-7.7 10.4q-2.4 3-5.4 6.7l1.6 1.4q3.1-3.8 5.5-6.8zm-8.2 10q-2.6 3.1-5.7 6.5l1.6 1.5q3.1-3.5 5.7-6.6zm-8.5 9.7q-2.8 3.1-5.9 6.3l1.6 1.5q3.1-3.3 5.9-6.3zm-8.9 9.4q-2.9 3-6 6.1l1.5 1.5q3.1-3.1 6.1-6.1zm-9.2 9.1q-3 2.9-6.2 6l1.5 1.5q3.2-3 6.2-5.9zm-9.3 8.8q-3.1 2.9-6.4 5.8l1.4 1.6q3.3-2.9 6.4-5.8zm-9.6 8.6q-3.2 2.8-6.6 5.6l1.4 1.7q3.4-2.9 6.6-5.6zm-9.9 8.3q-3.2 2.7-6.6 5.4l1.3 1.7q3.4-2.7 6.7-5.4zm-10.1 8q-3.3 2.6-6.8 5.3l1.3 1.7q3.5-2.6 6.9-5.3zm-10.3 7.9q-3.4 2.5-7 5l1.3 1.8q3.5-2.6 7-5.1zm-10.5 7.5q-3.5 2.5-7.1 4.9l1.2 1.8q3.6-2.4 7.1-4.9zm-10.7 7.2q-3.5 2.4-7.2 4.7l1.2 1.8q3.6-2.3 7.2-4.7zm-10.9 7q-3.6 2.3-7.3 4.5l1.1 1.9q3.8-2.3 7.4-4.6zm-11 6.7q-3.7 2.2-7.5 4.3l1.1 1.9q3.8-2.1 7.5-4.3zm-11.3 6.4q-3.7 2.1-7.5 4.1l1 1.9q3.8-2 7.6-4.1zm-11.4 6.1q-3.8 2-7.6 3.9l0.9 2q3.9-2 7.7-4zm-11.5 5.9q-3.8 1.8-7.8 3.7l1 1.9q3.9-1.8 7.7-3.7zm-11.6 5.5q-3.9 1.8-7.9 3.5l0.9 2q4-1.7 7.9-3.5zm-11.8 5.2q-4 1.7-8 3.3l0.9 2q4-1.6 7.9-3.3zm-12 4.9q-3.9 1.6-8 3.2l0.8 2q4-1.6 8-3.2zm-12 4.7q-4 1.5-8.1 2.9l0.7 2q4.1-1.4 8.1-2.9zm-12.1 4.3q-4.1 1.4-8.2 2.7l0.7 2.1q4.1-1.3 8.2-2.7zm-12.3 4q-4.1 1.3-8.2 2.5l0.6 2.1q4.1-1.3 8.2-2.5zm-12.3 3.7q-4.1 1.2-8.3 2.3l0.6 2.1q4.2-1.2 8.3-2.3zm-12.5 3.4q-4.1 1.1-8.3 2.1l0.5 2.1q4.2-1.1 8.4-2.1zm-12.6 3.1q-4.1 1-8.4 1.9l0.5 2.1q4.3-0.9 8.4-1.9zm-12.6 2.8q-4.2 0.9-8.4 1.7l0.4 2.1q4.3-0.8 8.5-1.7zm-12.7 2.5q-4.2 0.8-8.5 1.6l0.4 2.1q4.3-0.8 8.5-1.5zm-12.7 2.2q-4.2 0.7-8.5 1.3l0.3 2.1q4.3-0.6 8.5-1.3zm-12.7 2q-4.3 0.5-8.6 1.1l0.3 2.1q4.3-0.5 8.6-1.1zm-12.8 1.6q-4.3 0.5-8.6 1l0.2 2.1q4.3-0.4 8.6-0.9zm-12.8 1.3q-4.3 0.4-8.6 0.8l0.2 2.1q4.3-0.3 8.6-0.7zm-12.9 1.1q-4.3 0.3-8.6 0.5l0.1 2.2q4.4-0.3 8.7-0.6zm-12.9 0.8q-4.3 0.2-8.6 0.4v2.2q4.4-0.2 8.7-0.4zm-12.9 0.5q-0.6 0-1.1 0v2.2q0.6 0 1.1 0z"/><path class="b" d="m2569.3 1062.6c0.1 0 1.7 2.6 4.9 7.1l1.8-1.3c-1.7-2.2-2.9-3.9-3.7-5.1q-0.6-0.9-0.9-1.4-0.3-0.4-0.3-0.4zm7.5 10.4q2.2 3.1 5.2 6.8l1.7-1.4q-3-3.6-5.2-6.6zm7.9 10q2.5 3.1 5.4 6.5l1.6-1.3q-2.9-3.5-5.4-6.5zm8.3 9.7q2.6 3 5.6 6.3l1.6-1.4q-3-3.3-5.7-6.3zm8.6 9.4q2.8 3 5.8 6.2l1.6-1.5q-3.1-3.1-5.9-6.1zm8.9 9.2q2.9 2.9 6 6l1.5-1.6q-3.1-3-6-5.9zm9 8.9q3 2.9 6.2 5.8l1.5-1.5q-3.2-3-6.2-5.8zm9.3 8.7q3.1 2.7 6.4 5.6l1.4-1.6q-3.3-2.8-6.4-5.6zm9.6 8.4q3.2 2.7 6.5 5.5l1.3-1.7q-3.3-2.7-6.4-5.4zm9.7 8.1q3.3 2.7 6.7 5.3l1.3-1.7q-3.4-2.6-6.6-5.2zm10 7.9q3.4 2.6 6.8 5.1l1.3-1.7q-3.5-2.5-6.8-5.1zm10.2 7.6q3.4 2.5 6.9 5l1.2-1.8q-3.5-2.4-6.8-4.9zm10.4 7.4q3.4 2.3 7 4.7l1.2-1.8q-3.6-2.3-7-4.7zm10.5 7.1q3.6 2.3 7.2 4.5l1.1-1.8q-3.6-2.2-7.1-4.5zm10.8 6.8q3.5 2.2 7.2 4.3l1.1-1.8q-3.7-2.1-7.2-4.3zm10.9 6.5q3.6 2.1 7.4 4.1l1-1.8q-3.7-2.1-7.4-4.2zm11.2 6.2q3.7 2 7.4 4l1-1.9q-3.8-1.9-7.4-3.9zm11.2 5.9q3.8 1.9 7.6 3.7l0.9-1.9q-3.8-1.8-7.5-3.7zm11.4 5.6q3.8 1.8 7.7 3.6l0.9-2q-3.9-1.7-7.7-3.5zm11.6 5.3q3.8 1.7 7.7 3.4l0.9-2q-3.9-1.7-7.8-3.3zm11.7 5q3.9 1.6 7.9 3.1l0.8-2q-4-1.5-7.9-3.1zm11.8 4.7q4 1.5 8 2.9l0.7-1.9q-4-1.5-7.9-3zm11.9 4.4q4 1.4 8 2.8l0.7-2.1q-4-1.3-8-2.7zm12.1 4.1q4 1.3 8.1 2.5l0.6-2q-4.1-1.2-8.1-2.5zm12.2 3.7q4 1.2 8.1 2.4l0.6-2.1q-4.1-1.1-8.1-2.3zm12.2 3.5q4.1 1 8.2 2.1l0.5-2.1q-4.1-1-8.1-2.1zm12.3 3.1q4.1 1 8.2 2l0.5-2.1q-4.1-0.9-8.2-1.9zm12.4 2.8q4.1 0.9 8.3 1.7l0.4-2q-4.2-0.9-8.3-1.8zm12.5 2.6q4.1 0.7 8.3 1.5l0.4-2.1q-4.2-0.7-8.3-1.5zm12.5 2.2q4.2 0.7 8.4 1.3l0.3-2.1q-4.2-0.6-8.3-1.3zm12.5 1.9q4.2 0.6 8.4 1.1l0.3-2.1q-4.2-0.5-8.4-1.1zm12.6 1.6q4.2 0.5 8.5 0.9l0.2-2.1q-4.2-0.4-8.4-0.9zm12.6 1.4q4.2 0.3 8.5 0.7l0.2-2.2q-4.3-0.3-8.5-0.7zm12.7 1.1q4.2 0.3 8.5 0.5l0.1-2.1q-4.3-0.3-8.5-0.5zm12.7 0.7q4.3 0.2 8.5 0.3l0.1-2.1q-4.3-0.1-8.5-0.3z"/><path class="b" d="m2574.9 1054.4c0 0 1.6 2.6 4.9 7.1l1.7-1.3q-2.4-3.3-3.6-5.1-0.6-0.9-0.9-1.4-0.3-0.4-0.3-0.4zm7.4 10.5q2.3 3 5.3 6.7l1.6-1.3q-2.9-3.7-5.2-6.7zm7.9 10q2.5 3.1 5.5 6.5l1.6-1.4q-2.9-3.4-5.4-6.4zm8.2 9.7q2.7 3 5.7 6.3l1.5-1.4q-2.9-3.3-5.6-6.3zm8.5 9.4q2.8 3 5.9 6.2l1.5-1.5q-3-3.1-5.8-6.1zm8.8 9.2q2.9 2.9 6 5.9l1.5-1.5q-3.1-3-6-5.9zm9.1 8.9q3 2.9 6.2 5.8l1.4-1.5q-3.2-3-6.2-5.8zm9.4 8.6q3.1 2.8 6.3 5.7l1.4-1.6q-3.2-2.8-6.3-5.6zm9.5 8.4q3.2 2.7 6.5 5.4l1.4-1.6q-3.3-2.7-6.5-5.4zm9.8 8.1q3.3 2.7 6.6 5.3l1.3-1.7q-3.3-2.6-6.6-5.2zm10 7.9q3.3 2.5 6.8 5.1l1.2-1.7q-3.4-2.6-6.7-5.1zm10.2 7.6q3.4 2.5 6.9 4.9l1.2-1.7q-3.5-2.5-6.8-4.9zm10.3 7.3q3.5 2.4 7.1 4.8l1.1-1.8q-3.5-2.4-7-4.7zm10.6 7q3.5 2.3 7.2 4.6l1.1-1.8q-3.6-2.2-7.1-4.5zm10.7 6.8q3.6 2.2 7.3 4.3l1.1-1.8q-3.7-2.2-7.3-4.3zm11 6.5q3.6 2 7.4 4.1l1-1.8q-3.7-2.1-7.4-4.2zm11.1 6.2q3.7 2 7.5 4l1-1.9q-3.8-1.9-7.5-3.9zm11.3 5.9q3.8 1.9 7.6 3.7l0.9-1.9q-3.8-1.8-7.5-3.7zm11.4 5.6q3.8 1.8 7.7 3.6l0.9-2q-3.9-1.7-7.7-3.5zm11.6 5.3q3.8 1.7 7.7 3.4l0.9-2q-3.9-1.7-7.8-3.3zm11.7 5q3.9 1.6 7.9 3.1l0.8-2q-4-1.5-7.9-3.1zm11.8 4.7q4 1.5 8 3l0.7-2q-4-1.5-7.9-3zm11.9 4.4q4 1.4 8 2.8l0.7-2q-4-1.4-8-2.8zm12.1 4.1q4 1.3 8.1 2.5l0.6-2q-4.1-1.2-8.1-2.5zm12.2 3.7q4 1.2 8.1 2.4l0.6-2.1q-4.1-1.1-8.1-2.3zm12.2 3.4q4.1 1.1 8.2 2.2l0.5-2.1q-4.1-1-8.1-2.1zm12.3 3.2q4.1 0.9 8.2 1.9l0.5-2.1q-4.1-0.9-8.2-1.9zm12.4 2.8q4.1 0.9 8.3 1.8l0.4-2.1q-4.2-0.9-8.3-1.7zm12.5 2.5q4.1 0.8 8.3 1.5l0.4-2.1q-4.2-0.7-8.3-1.5zm12.5 2.2q4.2 0.7 8.4 1.3l0.3-2.1q-4.2-0.6-8.3-1.3zm12.5 1.9q4.2 0.6 8.4 1.2l0.3-2.1q-4.2-0.6-8.4-1.1zm12.6 1.6q4.2 0.5 8.5 0.9l0.2-2.1q-4.2-0.4-8.4-0.9zm12.7 1.3q4.2 0.4 8.4 0.7l0.2-2.1q-4.2-0.3-8.4-0.7zm12.7 1q4.2 0.3 8.4 0.5l0.1-2.1q-4.2-0.2-8.4-0.5zm12.7 0.7q4.2 0.2 8.5 0.4v-2.1q-4.2-0.2-8.4-0.4z"/><path class="a" d="m4425.6 473.8c0 0-157 278.7-155.1 673.1"/><path class="b" d="m4422.9 472.2c-0.1 0.3-155.5 276-155.5 667.4q0 3.7 0 7.4l6.2-0.1q0-3.7 0-7.3c0-194.9 38.7-361 77.4-478.4 19.4-58.7 38.7-105.2 53.2-137 7.3-15.9 13.3-28.2 17.5-36.4 2.2-4.2 3.8-7.3 4.9-9.4q0.9-1.5 1.3-2.3 0.2-0.4 0.3-0.6 0.1-0.2 0.2-0.2z"/><path class="a" d="m2879.7 474.3c0 0 157.1 274.7 155.1 663.5"/><path class="b" d="m2877 475.8q0 0 0.1 0.2c4.6 8.1 154.7 276.4 154.6 654.5q0 3.6 0 7.3h6.2q0-3.7 0-7.3c0-385.8-155.4-657.5-155.5-657.7z"/><path class="a" d="m4022.5 267l-50.1-38.2c-106.2 29.1-247.4 34.4-294.3 35.4l-27.2 0.2c0 0-181.1-0.2-310.3-35.6l-50 38.2c0 0 76.8 54.9 356.7 56.1v0.1l17.2 0.2 0.1-0.3c280.8-1 357.9-56.1 357.9-56.1z"/><path fill-rule="evenodd" d="m3647.3 323.2l-0.1-0.1q-0.3 0-0.6 0l0.6-58.7q0.6 0 1 0l-0.5 58.8zm-356.8-56.2l0.2-0.1-0.1 0.2q-0.1-0.1-0.1-0.1zm369.2 56.3h-1.1v-58.9h1zm-24.2-0.3q-0.5 0-1.1 0l1.3-58.8q0.5 0 1.1 0zm-12.1-0.2q-0.6 0-1.1 0l1.8-58.9q0.6 0 1.1 0zm-12.1-0.2q-0.6 0-1.1-0.1l2.5-59q0.5 0 1 0zm-12.1-0.3q-0.5 0-1.1 0l3.1-59.2q0.5 0 1 0zm-12.1-0.4q-0.5 0-1.1 0l3.7-59.3q0.5 0 1.1 0zm-12.1-0.4q-0.6-0.1-1.1-0.1l4.2-59.4q0.5 0 1.1 0zm-12.1-0.5q-0.6 0-1.1-0.1l4.8-59.5q0.6 0 1.1 0.1zm-12.1-0.7q-0.6 0-1.1 0l5.4-59.7q0.5 0.1 1.1 0.1zm-12.1-0.7q-0.6-0.1-1.1-0.1l6-59.7q0.5 0.1 1 0.1zm-12-0.8q-0.6-0.1-1.1-0.1l6.5-59.7q0.6 0 1.1 0zm-12.1-0.9q-0.5 0-1.1-0.1l7.2-59.7q0.5 0 1 0zm-12.1-1q-0.5 0-1.1-0.1l7.8-59.7q0.5 0 1 0.1zm-12.1-1.2q-0.5 0-1.1-0.1l8.3-59.7q0.5 0 1.1 0.1zm-12.1-1.3q-0.5 0-1.1-0.1l8.8-59.7q0.5 0.1 1.1 0.1zm-12.1-1.4q-0.5 0-1.1-0.1l9.4-59.6q0.5 0.1 1 0.2zm-12-1.6q-0.6 0-1.1-0.1l9.9-59.4q0.5 0 1 0.1zm-12-1.7q-0.5 0-1.1-0.1l10.4-59.3q0.5 0.1 1.1 0.1zm-12-1.8q-0.6-0.1-1.1-0.1l10.9-59.1q0.5 0.1 1 0.1zm-11.9-1.9q-0.6-0.1-1.1-0.2l11.4-58.8q0.5 0.1 1 0.2zm-11.9-2.2q-0.6-0.1-1.1-0.2l11.9-58.5q0.5 0.1 1 0.2zm-11.9-2.3q-0.5-0.1-1.1-0.3c3.7-17.3 8.7-40.7 12.4-58.1q0.5 0.1 1.1 0.2zm-11.9-2.5q-0.6-0.1-1.1-0.3l12.8-57.6q0.6 0.1 1.1 0.2zm-11.8-2.8q-0.6-0.1-1.1-0.2l13.3-57.2q0.5 0.1 1 0.2zm-11.8-3q-0.5-0.2-1-0.3l13.7-56.6q0.5 0.1 1 0.2zm-11.7-3.2q-0.6-0.2-1.1-0.3l14.1-55.9q0.5 0.1 1 0.2zm-11.6-3.6q-0.5-0.1-1-0.3l14.4-55.1q0.5 0.2 1.1 0.3zm-11.6-4q-0.5-0.1-1-0.3l13.8-50.6 1.4-1zm-11.4-4.4q-0.5-0.2-1-0.5l9.8-34.3 1.4-1.1zm-11.2-5q-0.5-0.2-1-0.5l5.1-17.1 1.4-1.1zm368.6-8.9h1.1l0.6 58.9q-0.5 0-1.1 0zm11.5-0.2q0.5 0 1 0l1.3 58.9q-0.5 0-1.1 0zm11.5-0.3q0.5 0 1 0l2 59q-0.6 0-1.1 0zm11.5-0.4q0.5 0 1 0l2.6 59.1q-0.6 0-1.1 0zm11.6-0.4q0.5-0.1 1-0.1l3 59.3q-0.6 0-1.1 0zm11.6-0.5q0.5 0 1-0.1l3.4 59.4q-0.6 0.1-1.1 0.1zm11.6-0.6q0.5-0.1 1-0.1l3.8 59.5q-0.6 0.1-1.1 0.1zm11.6-0.7q0.5 0 1-0.1l4.2 59.7q-0.6 0-1.1 0zm11.6-0.7q0.5-0.1 1-0.1l4.6 59.7q-0.5 0.1-1.1 0.1zm11.6-0.8q0.5-0.1 1.1-0.1l5 59.8q-0.5 0-1.1 0.1zm11.6-1q0.5 0 1 0l5.6 59.8q-0.5 0.1-1.1 0.1zm11.5-1q0.6 0 1.1-0.1l6 59.9q-0.5 0.1-1.1 0.1zm11.5-1.1q0.6 0 1.1-0.1l6.5 59.9q-0.5 0.1-1 0.1zm11.5-1.1q0.5-0.1 1-0.2l7.1 59.9q-0.6 0.1-1.1 0.1zm11.5-1.2q0.5-0.1 1-0.1l7.6 59.8q-0.5 0-1.1 0.1zm11.5-1.4q0.5 0 1-0.1l8.2 59.7q-0.5 0.1-1.1 0.2zm11.4-1.5q0.6 0 1.1-0.1l8.7 59.6q-0.5 0-1.1 0.1zm11.5-1.5q0.5-0.1 1-0.2l9.3 59.4q-0.5 0.1-1 0.2zm11.3-1.7q0.6 0 1.1-0.1l9.9 59.1q-0.5 0.1-1 0.2zm11.3-1.8q0.5 0 1-0.1l10.6 58.8q-0.5 0.1-1 0.2zm11.3-1.8q0.5-0.1 1-0.2l11.3 58.5q-0.6 0.1-1.1 0.2zm11.2-2q0.5-0.1 1.1-0.2l11.9 58.1q-0.5 0.1-1.1 0.2zm11.3-2.1q0.5-0.1 1-0.2l12.7 57.5q-0.6 0.2-1.1 0.3zm11.1-2.3q0.5-0.1 1-0.2l13.5 57q-0.6 0.1-1.1 0.3zm11.1-2.5q0.5-0.1 1-0.2l14.2 56.2q-0.6 0.2-1.1 0.3zm11-2.5q0.5-0.2 1-0.3l15 55.4q-0.5 0.2-1.1 0.3zm10.9-2.7q0.5-0.2 1-0.3l15.8 54.3q-0.5 0.2-1 0.4zm12.9 3.9l1.4 1 14.1 44.9q-0.5 0.2-1 0.4zm16 12.3l1.5 1.1 9.6 27.8q-0.6 0.2-1.1 0.4zm17.3 13.3l1.7 1.2 3.3 8.9q-0.4 0.2-1 0.5z"/><path class="b" d="m4022.5 267l1.9-2.4-50.1-38.2c-0.8-0.6-1.8-0.8-2.7-0.5-52.8 14.4-114.5 23-168.9 28.1-54.3 5.1-101.3 6.6-124.7 7.1l0.1 3.1 3 0.7q0.3-1.5-0.6-2.7c-0.6-0.7-1.5-1.1-2.4-1.1l-27.2 0.3v3h3.1c0-1.7-1.4-3.1-3.1-3.1q0 0-2 0c-10.1 0-56.9-0.7-116.1-5.4-59.3-4.7-131.1-13.5-191.4-30-0.9-0.3-1.9-0.1-2.6 0.5l-50.1 38.2c-0.8 0.6-1.2 1.5-1.2 2.5 0 1 0.5 1.9 1.3 2.5 0.3 0.2 19.9 14.1 74.4 28 54.5 14 143.9 28 284 28.6l0.1-3.1-1.6 2.7 0.1 0.1c0.5 0.2 1 0.3 1.5 0.4l17.2 0.1c1.4 0.1 2.7-0.9 3-2.3l0.1-0.3-3-0.7v3.1c140.6-0.5 230.3-14.5 285-28.5 54.7-14 74.3-27.9 74.7-28.1 0.8-0.6 1.3-1.5 1.3-2.5 0-1-0.5-1.9-1.2-2.5l-1.9 2.4-1.8-2.5 1 1.5-1-1.5 1 1.5-1-1.5q0 0-0.2 0.2c-4.7 3.1-85.3 54.4-355.9 55.4-1.5 0-2.7 1-3 2.3l-0.1 0.3 3 0.7 0.1-3.1-17.2-0.2-0.1 3.1 1.6-2.7h-0.1q-0.7-0.4-1.5-0.4c-139.7-0.6-228.7-14.6-282.6-28.4-26.9-6.9-45.1-13.8-56.5-18.9-5.7-2.5-9.7-4.6-12.3-6.1q-1.9-1.1-2.8-1.6-0.4-0.3-0.6-0.5h-0.1l-0.1-0.1-0.6 1 0.6-1-0.6 1 0.6-1-1.7 2.5 1.8 2.5 50.1-38.2-1.9-2.5-0.8 3c65 17.8 142.7 26.7 204.2 31.1 61.5 4.5 106.9 4.6 106.9 4.6v-3.1h-3c0 0.9 0.3 1.7 0.9 2.2 0.6 0.6 1.3 0.9 2.2 0.9l27.1-0.3v-3l-3-0.7c-0.2 0.9 0 1.9 0.6 2.6 0.6 0.8 1.5 1.2 2.5 1.2 23.5-0.5 70.6-2.1 125.1-7.2 54.6-5.1 116.6-13.7 169.9-28.3l-0.8-3-1.8 2.5 50 38.2 1.9-2.5-1.8-2.5z"/><path class="b" d="m3281.3 273.4c0 0.1 2.5 1.6 7.7 4.2l1.2-2.3c-2.6-1.3-4.4-2.4-5.7-3.1q-0.9-0.5-1.3-0.8-0.3-0.1-0.4-0.2h-0.1zm10.6 5.6q3.4 1.7 7.9 3.6l1.1-2.4q-4.5-2-7.8-3.6zm10.9 4.9q3.6 1.6 8 3.3l1-2.5q-4.3-1.7-8-3.3zm11.1 4.4q3.8 1.5 8.1 3l0.9-2.5q-4.3-1.5-8.1-3zm11.2 4.1q3.9 1.3 8.2 2.8l0.9-2.6q-4.3-1.4-8.2-2.8zm11.3 3.8q4 1.2 8.3 2.5l0.7-2.6q-4.2-1.2-8.2-2.5zm11.4 3.5q4 1.1 8.3 2.3l0.7-2.6q-4.3-1.1-8.3-2.3zm11.5 3.2q4 1.1 8.4 2.2l0.6-2.7q-4.3-1-8.3-2.1zm11.5 3q4.1 1 8.4 2l0.6-2.7q-4.3-1-8.4-2zm11.6 2.8q4.1 0.9 8.4 1.8l0.6-2.6q-4.3-0.9-8.4-1.9zm11.6 2.6q4.2 0.9 8.5 1.7l0.5-2.6q-4.3-0.9-8.4-1.7zm11.6 2.3q4.2 0.8 8.5 1.6l0.5-2.6q-4.3-0.8-8.5-1.6zm11.7 2.2q4.2 0.7 8.5 1.5l0.5-2.7q-4.3-0.7-8.5-1.5zm11.7 2q4.2 0.7 8.5 1.4l0.4-2.7q-4.3-0.6-8.5-1.3zm11.8 1.8q4.2 0.7 8.5 1.3l0.4-2.7q-4.3-0.6-8.5-1.2zm11.7 1.7q4.2 0.6 8.6 1.1l0.3-2.6q-4.3-0.6-8.5-1.2zm11.8 1.6q4.2 0.5 8.5 1l0.4-2.6q-4.4-0.5-8.6-1.1zm11.8 1.5q4.2 0.5 8.6 0.9l0.3-2.7q-4.4-0.4-8.6-0.9zm11.8 1.3q4.3 0.4 8.6 0.8l0.3-2.6q-4.4-0.5-8.6-0.9zm11.8 1.2q4.3 0.4 8.6 0.8l0.2-2.7q-4.3-0.4-8.5-0.8zm11.8 1.1q4.2 0.3 8.6 0.7l0.2-2.7q-4.3-0.4-8.6-0.7zm11.9 0.9q4.2 0.3 8.6 0.6l0.2-2.7q-4.4-0.3-8.6-0.6zm11.8 0.9q4.3 0.2 8.6 0.5l0.2-2.7q-4.4-0.3-8.6-0.5zm11.8 0.7q4.3 0.2 8.7 0.5l0.1-2.7q-4.4-0.2-8.6-0.5zm11.8 0.6q4.3 0.2 8.7 0.4l0.1-2.7q-4.4-0.2-8.6-0.4zm11.8 0.6q4.3 0.1 8.7 0.3v-2.7q-4.3-0.2-8.6-0.3zm11.9 0.4q4.3 0.1 8.6 0.2l0.1-2.7q-4.3-0.1-8.6-0.2zm11.9 0.3q4.2 0.1 8.6 0.2v-2.7q-4.3-0.1-8.6-0.2zm11.9 0.3q4.3 0 8.6 0.1l0.1-2.7q-4.4-0.1-8.7-0.1zm11.9 0.1q4.3 0.1 8.6 0.1l0.1-2.7q-4.4 0-8.7-0.1zm11.9 0.1q1.9 0 3.9 0 2.4 0 4.8 0l-0.1-2.7q-2.3 0-4.7 0-2 0-3.9 0zm11.9 0q4.3 0 8.6-0.1v-2.7q-4.3 0.1-8.6 0.1zm11.9-0.1q1.5 0 3 0l-0.1-1.4v1.4q2.9 0 5.7 0v-2.7q-2.9 0-5.7 0-1.5 0-3 0zm11.9 0q4.3-0.1 8.6-0.1v-2.7q-4.3 0.1-8.6 0.1zm11.9-0.1q4.2 0 8.6-0.1v-2.7q-4.4 0.1-8.7 0.1zm11.9-0.1q4.3-0.1 8.7-0.1l-0.1-2.7q-4.3 0-8.6 0.1zm11.9-0.2q4.2-0.1 8.6-0.1l-0.1-2.7q-4.3 0.1-8.6 0.1zm11.9-0.2q4.3-0.1 8.6-0.2l-0.1-2.7q-4.3 0.1-8.6 0.2zm11.9-0.3q4.3-0.1 8.6-0.3l-0.1-2.6q-4.3 0.1-8.6 0.2zm11.9-0.3q4.3-0.2 8.6-0.4l-0.1-2.7q-4.3 0.2-8.6 0.4zm11.8-0.5q4.3-0.2 8.7-0.3l-0.2-2.7q-4.3 0.1-8.6 0.3zm11.9-0.5q4.3-0.2 8.6-0.4l-0.2-2.7q-4.3 0.2-8.5 0.4zm11.8-0.6q4.3-0.2 8.6-0.5l-0.2-2.7q-4.3 0.3-8.6 0.5zm11.9-0.7q4.3-0.2 8.6-0.5l-0.2-2.7q-4.3 0.3-8.6 0.6zm11.9-0.8q4.3-0.3 8.6-0.7l-0.2-2.6q-4.3 0.3-8.6 0.6zm11.8-0.9q4.4-0.3 8.7-0.7l-0.3-2.7q-4.3 0.4-8.6 0.7zm11.9-1q4.3-0.4 8.6-0.8l-0.2-2.7q-4.3 0.5-8.6 0.8zm11.8-1.1q4.3-0.4 8.6-0.9l-0.3-2.6q-4.3 0.4-8.6 0.8zm11.9-1.2q4.3-0.5 8.6-1l-0.4-2.6q-4.2 0.5-8.5 0.9zm11.8-1.3q4.3-0.6 8.6-1.1l-0.4-2.7q-4.3 0.6-8.5 1.1zm11.7-1.5q4.3-0.6 8.6-1.2l-0.4-2.7q-4.2 0.6-8.5 1.2zm11.8-1.6q4.2-0.7 8.5-1.3l-0.4-2.7q-4.3 0.7-8.5 1.3zm11.7-1.8q4.3-0.7 8.5-1.5l-0.4-2.6q-4.3 0.7-8.5 1.4zm11.7-2q4.3-0.8 8.5-1.6l-0.5-2.6q-4.2 0.8-8.5 1.6zm11.7-2.2q4.3-0.9 8.5-1.8l-0.6-2.6q-4.2 0.9-8.4 1.7zm11.6-2.4q4.3-0.9 8.5-1.9l-0.6-2.6q-4.2 1-8.4 1.9zm11.6-2.7q4.2-1 8.4-2l-0.7-2.7q-4.2 1.1-8.4 2.1zm11.6-2.9q4.2-1.1 8.3-2.3l-0.7-2.5q-4.1 1.1-8.3 2.2zm11.5-3.2q4.2-1.2 8.3-2.5l-0.8-2.5q-4.1 1.3-8.3 2.5zm11.4-3.5q4.2-1.4 8.2-2.8l-0.9-2.5q-4 1.4-8.1 2.7zm11.3-3.8q4.1-1.5 8.1-3.1l-1-2.5q-3.9 1.5-8 3zm11.1-4.2q4.1-1.6 8-3.3l-1-2.5q-3.9 1.7-8 3.3zm11-4.7q4-1.7 7.9-3.6l-1.2-2.4q-3.8 1.8-7.8 3.6zm10.8-5.1q3.9-2 7.6-4.1l-1.3-2.4q-3.7 2.1-7.6 4.1zm10.5-5.7q1.8-1 3.6-2.1l-1.4-2.3q-1.7 1-3.5 2z"/><path fill-rule="evenodd" d="m1155.7 2939v-109.4h62.9v12.5h-48.1v32.2h43.4v12.5h-43.4v52.2zm128.9-83.3l0.1 13.9q-2.3-1.4-5-1.9-2.7-0.7-5.9-0.7-11.4 0-17.6 7.5-6 7.4-6 21.3v43.2h-13.6v-82h13.6v12.7q4.2-7.5 11-11 6.8-3.7 16.6-3.7 1.4 0 3.1 0.2 1.6 0.2 3.7 0.5zm49.3-0.7q17.6 0 27.6 11.4 10.1 11.4 10.1 31.7 0 20.1-10.1 31.6-10 11.4-27.6 11.4-17.6 0-27.7-11.4-9.9-11.5-9.9-31.6 0-20.3 9.9-31.7 10.1-11.4 27.7-11.4zm0 11.4q-10.8 0-17.1 8.5-6.3 8.4-6.3 23.2 0 14.7 6.2 23.2 6.3 8.4 17.2 8.4 10.8 0 17.1-8.5 6.3-8.5 6.3-23.1 0-14.6-6.3-23.1-6.3-8.6-17.1-8.6zm135.4 23.1v49.5h-13.5v-49.1q0-11.6-4.5-17.4-4.5-5.8-13.6-5.8-10.9 0-17.2 7-6.3 6.9-6.3 18.9v46.4h-13.6v-82h13.6v12.7q4.8-7.4 11.3-11 6.6-3.7 15.2-3.7 14.1 0 21.4 8.8 7.2 8.7 7.2 25.7zm33.6-55.8h13.6v23.3h27.7v10.4h-27.7v44.6q0 10 2.7 12.9 2.8 2.8 11.2 2.8h13.8v11.3h-13.8q-15.6 0-21.6-5.8-5.9-5.8-5.9-21.2v-44.6h-9.9v-10.4h9.9z"/><path fill-rule="evenodd" d="m3512.7 2945v-109.4h37.8q16.9 0 26.1 7.1 9.1 7 9.1 20 0 10-4.6 15.9-4.7 6-13.8 7.4 10.9 2.4 16.9 9.9 6.1 7.4 6.1 18.5 0 14.6-10 22.6-9.9 8-28.3 8zm36.7-97.2h-21.9v33h21.9q10.8 0 16.1-4.1 5.3-4.1 5.3-12.4 0-8.3-5.3-12.4-5.3-4.1-16.1-4.1zm1.8 45h-23.7v40h23.7q11.9 0 17.7-4.9 5.7-4.9 5.7-15.1 0-10.3-5.7-15.1-5.8-4.9-17.7-4.9zm134.1 5.4v46.8h-13.5v-12.5q-4.6 7.5-11.5 11.1-6.9 3.5-16.9 3.5-12.6 0-20-7-7.4-7.1-7.4-19 0-13.8 9.2-20.9 9.3-7 27.7-7h18.9v-1.3q0-9.3-6.2-14.4-6.1-5.1-17.1-5.1-7 0-13.7 1.7-6.7 1.7-12.8 5.1v-12.5q7.4-2.9 14.3-4.2 7-1.5 13.6-1.5 17.8 0 26.6 9.2 8.8 9.2 8.8 28zm-13.5 5.6h-13.4q-16.4 0-22.7 3.7-6.3 3.7-6.3 12.7 0 7.2 4.7 11.5 4.8 4.1 12.9 4.1 11.2 0 18-7.9 6.8-7.9 6.8-21.1zm107.3-37.7v12.6q-5.7-3.1-11.5-4.7-5.7-1.6-11.5-1.6-13.2 0-20.4 8.4-7.3 8.2-7.3 23.3 0 15 7.3 23.3 7.2 8.3 20.4 8.3 5.8 0 11.5-1.5 5.8-1.6 11.5-4.8v12.5q-5.6 2.6-11.7 3.9-6 1.3-12.8 1.3-18.5 0-29.5-11.6-10.9-11.7-10.9-31.4 0-20.1 11-31.6 11.1-11.5 30.3-11.5 6.2 0 12.1 1.3 6 1.3 11.5 3.8zm30.5 78.9v-114h13.5v67.3l40.2-35.3h17.3l-43.6 38.4 45.4 43.6h-17.6l-41.7-40.1v40.1z"/></svg>